<svg width="304" height="58" viewBox="0 0 304 58" fill="none" xmlns="http://www.w3.org/2000/svg">
<path d="M127.32 23.55C127.89 23.56 128.5 23.56 129.15 23.56C129.8 23.56 130.41 23.56 130.97 23.55L131.12 24.06C130.51 24.06 129.85 24.06 129.13 24.06C128.41 24.06 127.74 24.06 127.14 24.06L127.32 23.55ZM125.69 25.43C125.93 24.97 126.16 24.51 126.4 24.03C126.64 23.55 126.87 23.08 127.11 22.6C127.68 21.44 128.13 20.5 128.47 19.77C128.67 19.79 128.89 19.8 129.16 19.81C129.42 19.81 129.64 19.81 129.81 19.77C130.17 20.55 130.63 21.5 131.19 22.6C131.62 23.46 132.09 24.41 132.61 25.43H131.67C131.56 25.14 131.36 24.7 131.08 24.1C130.87 23.63 130.61 23.08 130.3 22.44C129.99 21.81 129.59 21.04 129.1 20.14H129.14C129.1 20.2 128.63 21.15 127.75 22.99C127.56 23.4 127.37 23.81 127.18 24.22C126.99 24.63 126.8 25.03 126.61 25.43H125.7H125.69Z" fill="white"/>
<path d="M133.63 25.43C133.65 24.59 133.67 23.63 133.67 22.57C133.67 21.51 133.66 20.58 133.63 19.78C133.97 19.78 134.38 19.8 134.87 19.81C135.36 19.82 135.87 19.83 136.41 19.83C136.98 19.83 137.52 19.83 138.03 19.83C138.54 19.83 138.98 19.82 139.36 19.81C139.36 19.93 139.36 20.05 139.36 20.16C139.36 20.27 139.36 20.4 139.36 20.51C139.03 20.49 138.66 20.46 138.26 20.44C137.86 20.42 137.43 20.4 136.99 20.38C136.55 20.36 136.12 20.35 135.69 20.35C135.26 20.35 134.86 20.35 134.47 20.35C134.47 20.69 134.47 21.03 134.46 21.37C134.46 21.71 134.46 22.05 134.46 22.39C135.18 22.4 135.92 22.39 136.69 22.39C137.46 22.38 138.17 22.36 138.81 22.34C138.81 22.44 138.8 22.54 138.8 22.64C138.8 22.74 138.8 22.85 138.81 22.94C138.17 22.93 137.46 22.91 136.68 22.9C135.91 22.9 135.17 22.89 134.45 22.9C134.45 23.76 134.45 24.42 134.47 24.89C134.87 24.89 135.28 24.89 135.71 24.89C136.14 24.89 136.57 24.87 136.99 24.86C137.42 24.85 137.84 24.83 138.24 24.8C138.64 24.78 139.01 24.76 139.35 24.73C139.35 24.85 139.35 24.97 139.35 25.09C139.35 25.21 139.35 25.33 139.35 25.45H133.62L133.63 25.43Z" fill="white"/>
<path d="M141.49 22.7H142C142.26 22.72 142.5 22.72 142.74 22.73C142.98 22.73 143.2 22.73 143.4 22.73C143.99 22.73 144.47 22.69 144.84 22.62C145.21 22.55 145.49 22.42 145.68 22.24C145.87 22.06 145.97 21.81 145.97 21.48C145.97 21.07 145.8 20.78 145.46 20.6C145.12 20.42 144.61 20.33 143.94 20.33H143.19C142.94 20.33 142.69 20.33 142.45 20.33H141.51C141.51 20.71 141.51 21.1 141.5 21.49C141.5 21.88 141.5 22.28 141.5 22.68M140.68 25.43C140.71 24.61 140.72 23.67 140.72 22.6C140.72 21.53 140.71 20.59 140.68 19.78H142.63C142.84 19.78 143.06 19.78 143.28 19.77C143.5 19.77 143.72 19.77 143.96 19.77C144.92 19.77 145.64 19.9 146.11 20.17C146.58 20.44 146.82 20.85 146.82 21.42C146.82 21.89 146.67 22.24 146.37 22.49C146.07 22.74 145.72 22.89 145.33 22.97C144.94 23.04 144.51 23.08 144.05 23.08V23.14C144.76 23.23 145.35 23.46 145.85 23.85C146.34 24.23 146.74 24.76 147.05 25.44H145.95C145.79 24.92 145.58 24.51 145.31 24.2C145.04 23.89 144.69 23.66 144.28 23.51C143.87 23.36 143.36 23.27 142.75 23.26C142.49 23.25 142.26 23.25 142.06 23.25H141.5C141.5 23.85 141.5 24.25 141.52 24.43C141.52 24.61 141.52 24.78 141.53 24.95C141.53 25.12 141.53 25.28 141.54 25.45H140.67L140.68 25.43Z" fill="white"/>
<path d="M151.65 24.97C152.25 24.97 152.77 24.88 153.21 24.7C153.64 24.52 153.98 24.25 154.22 23.9C154.46 23.55 154.57 23.12 154.57 22.62C154.57 22.12 154.45 21.7 154.22 21.34C153.98 20.98 153.65 20.7 153.21 20.51C152.77 20.32 152.25 20.22 151.66 20.22C151.07 20.22 150.53 20.32 150.09 20.51C149.65 20.7 149.32 20.98 149.09 21.34C148.86 21.7 148.74 22.13 148.74 22.62C148.74 23.11 148.86 23.55 149.09 23.9C149.32 24.25 149.66 24.52 150.09 24.7C150.52 24.88 151.05 24.97 151.66 24.97M151.65 25.52C150.87 25.52 150.2 25.41 149.64 25.18C149.08 24.95 148.65 24.61 148.35 24.18C148.05 23.74 147.9 23.22 147.9 22.61C147.9 22 148.05 21.46 148.34 21.02C148.64 20.58 149.07 20.25 149.62 20.02C150.17 19.79 150.85 19.68 151.63 19.68C152.41 19.68 153.08 19.79 153.63 20.03C154.19 20.26 154.61 20.59 154.91 21.03C155.2 21.47 155.35 21.99 155.35 22.61C155.35 23.23 155.2 23.74 154.91 24.18C154.62 24.62 154.19 24.95 153.63 25.18C153.07 25.41 152.4 25.52 151.63 25.52" fill="white"/>
<path d="M156.72 25.43C156.75 24.65 156.76 23.72 156.76 22.65C156.76 21.58 156.75 20.62 156.72 19.78H158.69C158.9 19.78 159.12 19.78 159.34 19.77C159.56 19.77 159.79 19.77 160.02 19.77C160.62 19.77 161.12 19.84 161.51 19.98C161.9 20.12 162.2 20.33 162.39 20.61C162.59 20.9 162.69 21.25 162.69 21.68C162.69 22.07 162.6 22.42 162.42 22.7C162.24 22.99 161.95 23.21 161.57 23.36C161.18 23.52 160.69 23.59 160.1 23.59H157.41V23.06H157.73C157.83 23.06 157.94 23.06 158.04 23.06C158.35 23.06 158.66 23.06 158.97 23.06C159.28 23.06 159.59 23.06 159.91 23.06C160.55 23.06 161.04 22.94 161.38 22.71C161.71 22.48 161.88 22.14 161.88 21.7C161.88 21.39 161.8 21.13 161.65 20.92C161.5 20.71 161.28 20.56 160.98 20.46C160.69 20.36 160.32 20.31 159.89 20.31H159.31C159.12 20.31 158.92 20.31 158.73 20.31H157.54C157.53 21.17 157.53 22.06 157.54 22.95C157.54 23.85 157.57 24.66 157.61 25.4H156.73L156.72 25.43Z" fill="white"/>
<path d="M170.5 22.56C170.5 23.18 170.37 23.72 170.1 24.17C169.83 24.62 169.45 24.96 168.95 25.2C168.45 25.44 167.86 25.56 167.16 25.56C166.46 25.56 165.87 25.44 165.37 25.2C164.87 24.96 164.49 24.62 164.23 24.17C163.97 23.72 163.84 23.18 163.84 22.56C163.84 22.03 163.84 21.53 163.84 21.07C163.84 20.61 163.83 20.18 163.82 19.78C163.96 19.8 164.11 19.81 164.26 19.81C164.41 19.81 164.55 19.81 164.67 19.78C164.67 20.17 164.65 20.6 164.65 21.07C164.65 21.53 164.65 22.04 164.65 22.58C164.65 23.09 164.75 23.52 164.94 23.88C165.14 24.24 165.43 24.52 165.8 24.71C166.18 24.9 166.64 25 167.17 25C167.7 25 168.16 24.9 168.55 24.71C168.93 24.52 169.22 24.24 169.41 23.88C169.61 23.52 169.71 23.09 169.71 22.58C169.71 22.02 169.71 21.51 169.71 21.06C169.71 20.6 169.71 20.18 169.69 19.79C169.83 19.81 169.97 19.82 170.12 19.82C170.27 19.82 170.41 19.82 170.54 19.79C170.53 20.18 170.52 20.61 170.52 21.08C170.52 21.55 170.52 22.05 170.52 22.57" fill="white"/>
<path d="M171.93 25.43C171.95 24.59 171.97 23.63 171.97 22.57C171.97 21.51 171.96 20.58 171.93 19.78C172.27 19.78 172.68 19.8 173.17 19.81C173.66 19.82 174.17 19.83 174.71 19.83C175.28 19.83 175.82 19.83 176.33 19.83C176.84 19.83 177.28 19.82 177.66 19.81C177.66 19.93 177.66 20.05 177.66 20.16C177.66 20.27 177.66 20.4 177.66 20.51C177.33 20.49 176.96 20.46 176.56 20.44C176.16 20.42 175.73 20.4 175.29 20.38C174.85 20.36 174.42 20.35 173.99 20.35C173.56 20.35 173.16 20.35 172.77 20.35C172.77 20.69 172.77 21.03 172.76 21.37C172.76 21.71 172.76 22.05 172.76 22.39C173.48 22.4 174.22 22.39 174.99 22.39C175.76 22.38 176.47 22.36 177.11 22.34C177.11 22.44 177.1 22.54 177.1 22.64C177.1 22.74 177.1 22.85 177.11 22.94C176.47 22.93 175.76 22.91 174.98 22.9C174.21 22.9 173.47 22.89 172.75 22.9C172.75 23.76 172.75 24.42 172.77 24.89C173.17 24.89 173.58 24.89 174.01 24.89C174.44 24.89 174.87 24.87 175.29 24.86C175.72 24.85 176.14 24.83 176.54 24.8C176.94 24.78 177.31 24.76 177.65 24.73C177.65 24.85 177.65 24.97 177.65 25.09C177.65 25.21 177.65 25.33 177.65 25.45H171.92L171.93 25.43Z" fill="white"/>
<path d="M179.79 22.7H180.3C180.56 22.72 180.8 22.72 181.04 22.73C181.28 22.73 181.5 22.73 181.7 22.73C182.29 22.73 182.77 22.69 183.14 22.62C183.51 22.55 183.79 22.42 183.98 22.24C184.17 22.06 184.27 21.81 184.27 21.48C184.27 21.07 184.1 20.78 183.76 20.6C183.42 20.42 182.91 20.33 182.24 20.33H181.49C181.24 20.33 180.99 20.33 180.75 20.33H179.81C179.81 20.71 179.81 21.1 179.8 21.49C179.8 21.88 179.8 22.28 179.8 22.68M178.98 25.43C179.01 24.61 179.02 23.67 179.02 22.6C179.02 21.53 179.01 20.59 178.98 19.78H180.93C181.14 19.78 181.36 19.78 181.58 19.77C181.8 19.77 182.02 19.77 182.26 19.77C183.22 19.77 183.94 19.9 184.41 20.17C184.88 20.44 185.12 20.85 185.12 21.42C185.12 21.89 184.97 22.24 184.67 22.49C184.37 22.74 184.02 22.89 183.63 22.97C183.24 23.04 182.81 23.08 182.35 23.08V23.14C183.06 23.23 183.66 23.46 184.15 23.85C184.64 24.23 185.04 24.76 185.35 25.44H184.25C184.09 24.92 183.88 24.51 183.61 24.2C183.34 23.89 182.99 23.66 182.58 23.51C182.17 23.36 181.66 23.27 181.05 23.26C180.79 23.25 180.56 23.25 180.36 23.25H179.8C179.8 23.85 179.8 24.25 179.82 24.43C179.82 24.61 179.82 24.78 179.83 24.95C179.83 25.12 179.83 25.28 179.84 25.45H178.97L178.98 25.43Z" fill="white"/>
<path d="M188.84 25.43C188.86 24.69 188.87 23.87 188.87 22.97C188.87 22.07 188.87 21.19 188.86 20.34C188.32 20.34 187.8 20.36 187.32 20.37C186.84 20.39 186.36 20.41 185.89 20.44C185.9 20.33 185.91 20.22 185.91 20.11C185.91 20 185.91 19.89 185.89 19.78C187.08 19.79 188.21 19.8 189.27 19.8C190.33 19.8 191.46 19.8 192.65 19.78C192.64 19.89 192.64 20 192.64 20.11C192.64 20.22 192.64 20.33 192.65 20.44C192.18 20.41 191.71 20.38 191.22 20.37C190.73 20.35 190.21 20.34 189.66 20.34C189.66 21.19 189.65 22.07 189.66 22.97C189.66 23.88 189.68 24.69 189.7 25.43H188.82H188.84Z" fill="white"/>
<path d="M196.83 24.97C197.43 24.97 197.95 24.88 198.39 24.7C198.82 24.52 199.16 24.25 199.4 23.9C199.64 23.55 199.75 23.12 199.75 22.62C199.75 22.12 199.63 21.7 199.4 21.34C199.16 20.98 198.83 20.7 198.39 20.51C197.95 20.32 197.43 20.22 196.84 20.22C196.25 20.22 195.71 20.32 195.27 20.51C194.83 20.7 194.5 20.98 194.27 21.34C194.04 21.7 193.92 22.13 193.92 22.62C193.92 23.11 194.04 23.55 194.27 23.9C194.5 24.25 194.84 24.52 195.27 24.7C195.7 24.88 196.23 24.97 196.84 24.97M196.83 25.52C196.05 25.52 195.38 25.41 194.83 25.18C194.27 24.95 193.84 24.61 193.54 24.18C193.24 23.74 193.09 23.22 193.09 22.61C193.09 22 193.24 21.46 193.54 21.02C193.84 20.58 194.27 20.25 194.82 20.02C195.38 19.79 196.05 19.68 196.83 19.68C197.61 19.68 198.28 19.79 198.83 20.03C199.39 20.26 199.81 20.59 200.11 21.03C200.4 21.47 200.55 21.99 200.55 22.61C200.55 23.23 200.4 23.74 200.11 24.18C199.82 24.62 199.39 24.95 198.83 25.18C198.27 25.41 197.6 25.52 196.83 25.52Z" fill="white"/>
<path d="M204 25.48C204.03 24.6092 204.043 23.611 204.043 22.4747C204.043 21.3384 204.03 20.3402 204 19.48C204.177 19.5012 204.343 19.5119 204.507 19.5119C204.67 19.5119 204.83 19.5012 204.98 19.48C204.957 20.3508 204.947 21.3596 204.95 22.4853C204.95 23.6216 204.97 24.6092 205 25.48H204Z" fill="white"/>
<path d="M207.01 25.43C207.03 24.49 207.04 23.55 207.04 22.6C207.04 21.65 207.04 20.72 207.01 19.78C207.18 19.79 207.38 19.8 207.6 19.81C207.82 19.81 208.01 19.81 208.17 19.78C208.71 20.38 209.25 20.98 209.81 21.58C210.36 22.18 210.92 22.78 211.48 23.38C211.75 23.67 212.02 23.95 212.29 24.24C212.56 24.53 212.84 24.81 213.11 25.1L212.86 25.15C212.87 24.43 212.87 23.53 212.86 22.45C212.86 22.01 212.86 21.56 212.85 21.11C212.85 20.66 212.83 20.21 212.82 19.77C212.97 19.79 213.11 19.8 213.25 19.8C213.39 19.8 213.52 19.79 213.65 19.77C213.65 20.24 213.65 20.71 213.64 21.18C213.64 21.65 213.64 22.12 213.64 22.59C213.64 23.71 213.65 24.65 213.68 25.42H212.53C212.13 24.98 211.73 24.53 211.32 24.09C210.91 23.65 210.5 23.21 210.1 22.78C209.28 21.9 208.44 21.03 207.61 20.17L207.83 20.12C207.83 21 207.82 21.88 207.83 22.77C207.83 23.66 207.85 24.54 207.87 25.43H207.03H207.01Z" fill="white"/>
<path d="M217.67 25.43C217.69 24.69 217.7 23.87 217.7 22.97C217.7 22.07 217.7 21.19 217.69 20.34C217.15 20.34 216.64 20.36 216.15 20.37C215.67 20.39 215.19 20.41 214.73 20.44C214.74 20.33 214.75 20.22 214.75 20.11C214.75 20 214.75 19.89 214.73 19.78C215.92 19.79 217.05 19.8 218.11 19.8C219.17 19.8 220.3 19.8 221.49 19.78C221.48 19.89 221.48 20 221.48 20.11C221.48 20.22 221.48 20.33 221.49 20.44C221.02 20.41 220.55 20.38 220.06 20.37C219.57 20.35 219.05 20.34 218.5 20.34C218.5 21.19 218.49 22.07 218.5 22.97C218.5 23.88 218.52 24.69 218.54 25.43H217.66H217.67Z" fill="white"/>
<path d="M222.55 25.43C222.58 24.59 222.59 23.63 222.59 22.57C222.59 21.51 222.58 20.58 222.55 19.78C222.89 19.78 223.3 19.8 223.79 19.81C224.28 19.82 224.79 19.83 225.33 19.83C225.9 19.83 226.44 19.83 226.95 19.83C227.46 19.83 227.9 19.82 228.28 19.81C228.28 19.93 228.28 20.05 228.28 20.16C228.28 20.27 228.28 20.4 228.28 20.51C227.95 20.49 227.58 20.46 227.18 20.44C226.78 20.42 226.35 20.4 225.91 20.38C225.47 20.36 225.03 20.35 224.61 20.35C224.18 20.35 223.78 20.35 223.39 20.35C223.39 20.69 223.38 21.03 223.38 21.37C223.38 21.71 223.38 22.05 223.38 22.39C224.1 22.4 224.84 22.39 225.61 22.39C226.38 22.38 227.09 22.36 227.73 22.34C227.73 22.44 227.71 22.54 227.71 22.64C227.71 22.74 227.71 22.85 227.73 22.94C227.09 22.93 226.38 22.91 225.6 22.9C224.83 22.9 224.09 22.89 223.37 22.9C223.37 23.76 223.37 24.42 223.39 24.89C223.79 24.89 224.2 24.89 224.63 24.89C225.06 24.89 225.49 24.87 225.91 24.86C226.34 24.85 226.76 24.83 227.16 24.8C227.56 24.77 227.93 24.76 228.27 24.73C228.27 24.85 228.27 24.97 228.27 25.09C228.27 25.21 228.27 25.33 228.27 25.45H222.54L222.55 25.43Z" fill="white"/>
<path d="M230.41 22.7H230.92C231.18 22.72 231.42 22.72 231.66 22.73C231.9 22.73 232.12 22.73 232.32 22.73C232.91 22.73 233.39 22.69 233.76 22.62C234.13 22.55 234.41 22.42 234.6 22.24C234.79 22.06 234.89 21.81 234.89 21.48C234.89 21.07 234.72 20.78 234.37 20.6C234.03 20.42 233.52 20.33 232.85 20.33H232.1C231.85 20.33 231.6 20.33 231.36 20.33H230.42C230.42 20.71 230.42 21.1 230.41 21.49C230.41 21.88 230.41 22.28 230.41 22.68M229.59 25.43C229.61 24.61 229.63 23.67 229.63 22.6C229.63 21.53 229.62 20.59 229.59 19.78H231.54C231.75 19.78 231.97 19.78 232.19 19.77C232.41 19.77 232.63 19.77 232.86 19.77C233.82 19.77 234.54 19.9 235.01 20.17C235.48 20.44 235.72 20.85 235.72 21.42C235.72 21.89 235.57 22.24 235.27 22.49C234.97 22.74 234.63 22.89 234.23 22.97C233.84 23.04 233.41 23.08 232.95 23.08V23.14C233.66 23.23 234.26 23.46 234.75 23.85C235.24 24.23 235.64 24.76 235.96 25.44H234.86C234.7 24.92 234.49 24.51 234.21 24.2C233.94 23.89 233.6 23.66 233.18 23.51C232.77 23.36 232.26 23.27 231.65 23.26C231.39 23.25 231.16 23.25 230.96 23.25H230.4C230.4 23.85 230.41 24.25 230.42 24.43C230.42 24.61 230.43 24.78 230.44 24.95C230.44 25.12 230.45 25.28 230.45 25.45H229.58L229.59 25.43Z" fill="white"/>
<path d="M237.23 25.43C237.25 24.49 237.26 23.55 237.26 22.6C237.26 21.65 237.25 20.72 237.23 19.78C237.4 19.79 237.6 19.8 237.82 19.81C238.04 19.81 238.23 19.81 238.39 19.78C238.93 20.38 239.47 20.98 240.03 21.58C240.58 22.18 241.14 22.78 241.7 23.38C241.96 23.67 242.24 23.95 242.51 24.24C242.78 24.53 243.06 24.81 243.33 25.1L243.08 25.15C243.09 24.43 243.09 23.53 243.08 22.45C243.08 22.01 243.08 21.56 243.07 21.11C243.07 20.66 243.05 20.21 243.04 19.77C243.19 19.79 243.33 19.8 243.47 19.8C243.61 19.8 243.74 19.79 243.87 19.77C243.87 20.24 243.86 20.71 243.86 21.18C243.86 21.65 243.86 22.12 243.86 22.59C243.86 23.71 243.87 24.65 243.9 25.42H242.75C242.35 24.98 241.95 24.53 241.54 24.09C241.13 23.65 240.72 23.21 240.32 22.78C239.5 21.9 238.66 21.03 237.82 20.17L238.04 20.12C238.03 21 238.03 21.88 238.04 22.77C238.04 23.66 238.06 24.54 238.08 25.43H237.24H237.23Z" fill="white"/>
<path d="M246.66 23.55C247.23 23.56 247.84 23.56 248.49 23.56C249.14 23.56 249.75 23.56 250.31 23.55L250.46 24.06C249.85 24.06 249.19 24.06 248.47 24.06C247.75 24.06 247.09 24.06 246.48 24.06L246.66 23.55ZM245.03 25.43C245.26 24.97 245.5 24.51 245.74 24.03C245.98 23.55 246.21 23.08 246.45 22.6C247.02 21.44 247.47 20.5 247.81 19.77C248 19.79 248.23 19.8 248.5 19.81C248.76 19.81 248.98 19.81 249.15 19.77C249.51 20.55 249.97 21.5 250.52 22.6C250.95 23.46 251.42 24.41 251.94 25.43H251C250.89 25.14 250.7 24.7 250.41 24.1C250.2 23.63 249.94 23.08 249.63 22.44C249.32 21.81 248.92 21.04 248.43 20.14H248.47C248.43 20.2 247.97 21.15 247.08 22.99C246.89 23.4 246.7 23.81 246.51 24.22C246.32 24.63 246.13 25.03 245.95 25.43H245.04H245.03Z" fill="white"/>
<path d="M256.23 25.54C255.42 25.54 254.73 25.42 254.15 25.19C253.57 24.96 253.13 24.61 252.83 24.17C252.53 23.73 252.38 23.2 252.38 22.59C252.38 21.98 252.54 21.44 252.86 21.01C253.18 20.57 253.63 20.24 254.22 20.01C254.81 19.79 255.5 19.67 256.3 19.67C256.79 19.67 257.29 19.72 257.78 19.81C258.28 19.91 258.81 20.07 259.38 20.3C259.36 20.44 259.36 20.56 259.36 20.68C259.36 20.8 259.36 20.92 259.38 21.06C258.82 20.76 258.28 20.55 257.78 20.43C257.28 20.31 256.8 20.25 256.34 20.25C255.7 20.25 255.15 20.33 254.67 20.52C254.2 20.7 253.84 20.97 253.58 21.32C253.33 21.67 253.2 22.09 253.2 22.58C253.2 23.07 253.32 23.48 253.56 23.84C253.8 24.2 254.15 24.47 254.62 24.67C255.09 24.87 255.65 24.96 256.32 24.96C256.89 24.96 257.43 24.88 257.94 24.71C258.45 24.54 258.93 24.26 259.4 23.85C259.39 23.98 259.39 24.1 259.4 24.22C259.41 24.34 259.43 24.46 259.45 24.59C259.02 24.91 258.55 25.15 258.05 25.31C257.54 25.47 256.94 25.54 256.25 25.54" fill="white"/>
<path d="M261 25.48C261.03 24.6092 261.043 23.611 261.043 22.4747C261.043 21.3384 261.027 20.3402 261 19.48C261.177 19.5012 261.343 19.5119 261.51 19.5119C261.677 19.5119 261.83 19.5012 261.983 19.48C261.96 20.3508 261.95 21.3596 261.953 22.4853C261.953 23.6216 261.97 24.6092 262 25.48H261Z" fill="white"/>
<path d="M266.94 24.97C267.54 24.97 268.06 24.88 268.5 24.7C268.93 24.52 269.27 24.25 269.51 23.9C269.75 23.55 269.86 23.12 269.86 22.62C269.86 22.12 269.74 21.7 269.51 21.34C269.27 20.98 268.94 20.7 268.5 20.51C268.06 20.32 267.54 20.22 266.95 20.22C266.36 20.22 265.82 20.32 265.38 20.51C264.94 20.7 264.61 20.98 264.38 21.34C264.15 21.7 264.03 22.13 264.03 22.62C264.03 23.11 264.15 23.55 264.38 23.9C264.61 24.25 264.95 24.52 265.38 24.7C265.81 24.88 266.34 24.97 266.95 24.97M266.94 25.52C266.16 25.52 265.49 25.41 264.93 25.18C264.37 24.95 263.94 24.61 263.64 24.18C263.34 23.74 263.19 23.22 263.19 22.61C263.19 22 263.34 21.46 263.64 21.02C263.94 20.58 264.37 20.25 264.92 20.02C265.48 19.79 266.15 19.68 266.93 19.68C267.71 19.68 268.38 19.79 268.93 20.03C269.49 20.26 269.91 20.59 270.21 21.03C270.51 21.47 270.65 21.99 270.65 22.61C270.65 23.23 270.5 23.74 270.21 24.18C269.92 24.62 269.49 24.95 268.93 25.18C268.37 25.41 267.7 25.52 266.93 25.52" fill="white"/>
<path d="M272 25.43C272.02 24.49 272.03 23.55 272.03 22.6C272.03 21.65 272.03 20.72 272 19.78C272.17 19.79 272.37 19.8 272.59 19.81C272.81 19.81 273 19.81 273.16 19.78C273.7 20.38 274.24 20.98 274.8 21.58C275.35 22.18 275.91 22.78 276.47 23.38C276.74 23.67 277.01 23.95 277.28 24.24C277.55 24.53 277.83 24.81 278.1 25.1L277.85 25.15C277.86 24.43 277.86 23.53 277.85 22.45C277.85 22.01 277.85 21.56 277.84 21.11C277.84 20.66 277.82 20.21 277.81 19.77C277.96 19.79 278.1 19.8 278.24 19.8C278.38 19.8 278.51 19.79 278.64 19.77C278.64 20.24 278.64 20.71 278.63 21.18C278.63 21.65 278.63 22.12 278.63 22.59C278.63 23.71 278.64 24.65 278.67 25.42H277.52C277.12 24.98 276.72 24.53 276.31 24.09C275.9 23.65 275.49 23.21 275.09 22.78C274.27 21.9 273.43 21.03 272.6 20.17L272.82 20.12C272.82 21 272.81 21.88 272.82 22.77C272.83 23.66 272.84 24.54 272.86 25.43H272.02H272Z" fill="white"/>
<path d="M281.42 23.55C281.99 23.56 282.6 23.56 283.25 23.56C283.9 23.56 284.51 23.56 285.07 23.55L285.22 24.06C284.62 24.06 283.95 24.06 283.23 24.06C282.51 24.06 281.84 24.06 281.24 24.06L281.42 23.55ZM279.8 25.43C280.04 24.97 280.27 24.51 280.51 24.03C280.75 23.55 280.98 23.08 281.22 22.6C281.79 21.44 282.24 20.5 282.58 19.77C282.78 19.79 283 19.8 283.27 19.81C283.53 19.81 283.75 19.81 283.92 19.77C284.28 20.55 284.74 21.5 285.3 22.6C285.73 23.46 286.2 24.41 286.72 25.43H285.78C285.67 25.14 285.48 24.7 285.19 24.1C284.98 23.63 284.72 23.08 284.41 22.44C284.1 21.81 283.7 21.04 283.21 20.14H283.25C283.21 20.2 282.74 21.15 281.86 22.99C281.67 23.4 281.48 23.81 281.29 24.22C281.1 24.63 280.91 25.03 280.72 25.43H279.81H279.8Z" fill="white"/>
<path d="M287.74 25.43C287.76 24.49 287.77 23.55 287.77 22.6C287.77 21.65 287.77 20.72 287.74 19.78C287.9 19.8 288.05 19.81 288.2 19.81C288.35 19.81 288.48 19.8 288.61 19.78C288.58 20.69 288.57 21.52 288.56 22.27C288.56 23.21 288.56 24.07 288.56 24.87C289.31 24.87 290.15 24.86 291.06 24.83C291.97 24.8 292.76 24.76 293.41 24.72C293.41 24.86 293.41 24.98 293.41 25.09C293.41 25.2 293.41 25.32 293.41 25.43H287.74Z" fill="white"/>
<path d="M126.41 38.49C126.47 37.5 126.5 36.19 126.5 34.54C126.5 32.89 126.47 31.58 126.41 30.59C126.83 30.63 127.57 30.66 128.63 30.68C129.69 30.71 130.78 30.71 131.9 30.7C133.02 30.69 133.88 30.66 134.5 30.61C134.48 30.88 134.47 31.15 134.47 31.41C134.47 31.67 134.48 31.94 134.5 32.21C133.78 32.08 132.82 31.97 131.62 31.89C130.42 31.81 129.32 31.77 128.33 31.79C128.32 32.19 128.31 32.6 128.3 33.01C128.3 33.42 128.3 33.85 128.3 34.29C129.18 34.3 130.11 34.29 131.09 34.26C132.07 34.23 132.95 34.19 133.72 34.14C133.7 34.35 133.69 34.57 133.69 34.81C133.69 35.05 133.7 35.27 133.72 35.48C132.94 35.44 132.05 35.4 131.08 35.37C130.1 35.34 129.18 35.34 128.31 35.36C128.31 36.66 128.37 37.7 128.48 38.49H126.41Z" fill="white"/>
<path d="M135.89 38.49C135.95 37.49 135.98 36.17 135.98 34.53C135.98 32.89 135.95 31.58 135.89 30.6C136.22 30.63 136.76 30.65 137.51 30.67C138.26 30.69 139.05 30.7 139.9 30.7C140.85 30.7 141.73 30.7 142.52 30.69C143.32 30.68 143.94 30.65 144.39 30.63C144.37 30.89 144.36 31.16 144.36 31.43C144.36 31.7 144.37 31.96 144.39 32.22C144.03 32.15 143.58 32.09 143.05 32.03C142.52 31.97 141.93 31.92 141.29 31.88C140.66 31.85 140.04 31.83 139.44 31.81C138.83 31.79 138.29 31.78 137.81 31.78C137.8 32.16 137.79 32.54 137.78 32.91C137.78 33.29 137.78 33.66 137.78 34.03C138.73 34.04 139.75 34.03 140.85 34C141.95 33.97 142.88 33.93 143.63 33.88C143.61 34.09 143.6 34.31 143.6 34.55C143.6 34.79 143.61 35.01 143.63 35.22C142.86 35.17 141.93 35.13 140.83 35.1C139.73 35.07 138.72 35.07 137.78 35.1C137.78 35.98 137.79 36.71 137.82 37.28C138.34 37.28 138.9 37.28 139.5 37.26C140.11 37.24 140.71 37.21 141.3 37.17C141.91 37.13 142.48 37.09 143.02 37.03C143.56 36.97 144.01 36.91 144.38 36.85C144.36 37.11 144.35 37.38 144.35 37.66C144.35 37.94 144.36 38.21 144.38 38.47H135.88L135.89 38.49Z" fill="white"/>
<path d="M146.14 38.49C146.18 37.17 146.2 35.85 146.2 34.54C146.2 33.23 146.18 31.91 146.14 30.6C146.49 30.65 146.84 30.68 147.18 30.68C147.52 30.68 147.84 30.66 148.13 30.6C148.08 31.49 148.05 32.55 148.03 33.79C148.02 35.15 148.03 36.33 148.05 37.31C148.98 37.31 150.12 37.27 151.47 37.19C152.82 37.11 153.83 37.02 154.5 36.9C154.48 37.22 154.47 37.5 154.47 37.74C154.47 37.98 154.47 38.23 154.5 38.49H146.14Z" fill="white"/>
<path d="M156 38.48C156.06 37.4775 156.093 36.1509 156.093 34.48C156.093 32.8091 156.06 31.4825 156 30.48C156.352 30.5306 156.684 30.561 157.01 30.561C157.336 30.561 157.654 30.5408 157.973 30.48C157.907 31.4927 157.88 32.8395 157.887 34.5003C157.887 36.1711 157.927 37.4876 158 38.4699H156.007L156 38.48Z" fill="white"/>
<path d="M160.24 38.49C160.3 37.52 160.33 36.21 160.33 34.56C160.33 32.91 160.3 31.59 160.24 30.6C160.76 30.6 161.25 30.61 161.69 30.61C162.13 30.61 162.57 30.61 162.98 30.59C163.27 30.58 163.56 30.57 163.86 30.57H164.8C165.79 30.57 166.59 30.66 167.21 30.83C167.82 31.01 168.28 31.29 168.58 31.68C168.88 32.07 169.03 32.59 169.03 33.24C169.03 33.82 168.9 34.31 168.64 34.72C168.38 35.13 167.95 35.45 167.35 35.68C166.75 35.91 165.96 36.02 164.98 36.02H161.92V34.9C162.03 34.9 162.14 34.9 162.25 34.9C162.36 34.9 162.46 34.9 162.57 34.92C162.9 34.92 163.22 34.93 163.54 34.94C163.86 34.94 164.19 34.94 164.51 34.94C165.42 34.94 166.1 34.81 166.53 34.54C166.97 34.27 167.19 33.87 167.19 33.34C167.19 32.96 167.09 32.65 166.89 32.42C166.69 32.19 166.39 32.02 165.99 31.91C165.59 31.8 165.08 31.75 164.45 31.75C164.27 31.75 164.09 31.75 163.89 31.75C163.69 31.75 163.5 31.75 163.29 31.75C163.08 31.75 162.88 31.76 162.68 31.77C162.48 31.77 162.28 31.77 162.09 31.77C162.06 32.94 162.06 34.16 162.09 35.41C162.12 36.67 162.17 37.68 162.25 38.47H160.24V38.49Z" fill="white"/>
<path d="M170.56 38.49C170.62 37.49 170.65 36.17 170.65 34.53C170.65 32.89 170.62 31.58 170.56 30.6C170.89 30.63 171.43 30.65 172.18 30.67C172.93 30.69 173.72 30.7 174.57 30.7C175.52 30.7 176.4 30.7 177.19 30.69C177.99 30.68 178.61 30.65 179.06 30.63C179.04 30.89 179.03 31.16 179.03 31.43C179.03 31.7 179.04 31.96 179.06 32.22C178.7 32.15 178.25 32.09 177.72 32.03C177.19 31.97 176.6 31.92 175.96 31.88C175.33 31.85 174.71 31.83 174.11 31.81C173.5 31.79 172.96 31.78 172.48 31.78C172.47 32.16 172.46 32.54 172.45 32.91C172.45 33.29 172.45 33.66 172.45 34.03C173.4 34.04 174.42 34.03 175.52 34C176.62 33.97 177.55 33.93 178.3 33.88C178.28 34.09 178.27 34.31 178.27 34.55C178.27 34.79 178.28 35.01 178.3 35.22C177.53 35.17 176.6 35.13 175.5 35.1C174.4 35.07 173.39 35.07 172.45 35.1C172.45 35.98 172.46 36.71 172.49 37.28C173.01 37.28 173.57 37.28 174.17 37.26C174.78 37.24 175.38 37.21 175.97 37.17C176.58 37.13 177.15 37.09 177.69 37.03C178.23 36.97 178.68 36.91 179.05 36.85C179.03 37.11 179.02 37.38 179.02 37.66C179.02 37.94 179.03 38.21 179.05 38.47H170.55L170.56 38.49Z" fill="white"/>
<path d="M187.76 29.68C188.01 29.45 188.4 29 188.95 28.32C189.09 28.22 189.22 28.1 189.34 27.96C189.57 28 189.95 28.01 190.5 28.01C191.05 28.01 191.43 27.99 191.66 27.96C191.44 28.09 191.22 28.24 190.99 28.39C190.76 28.54 190.53 28.69 190.3 28.84C189.7 29.24 189.29 29.52 189.06 29.68C188.95 29.68 188.74 29.68 188.41 29.68C188.08 29.68 187.87 29.68 187.76 29.68ZM186.43 35.73C187.06 35.75 187.76 35.76 188.53 35.76C189.3 35.76 190.01 35.75 190.65 35.73L191 36.83C190.26 36.81 189.43 36.8 188.48 36.8C187.53 36.8 186.7 36.81 185.96 36.83L186.43 35.73ZM183.44 38.49C183.74 37.87 184.06 37.22 184.37 36.55C184.69 35.87 184.99 35.21 185.29 34.54C185.96 33.07 186.54 31.76 187.02 30.6C187.44 30.65 187.96 30.68 188.57 30.69C189.18 30.69 189.66 30.67 190.02 30.6C190.56 31.9 191.15 33.21 191.77 34.54C192.27 35.65 192.89 36.97 193.63 38.49H191.46C191.26 37.89 190.97 37.14 190.6 36.23C190.25 35.35 189.88 34.49 189.51 33.65C189.13 32.81 188.78 32.1 188.45 31.5H188.52C188.37 31.77 187.83 32.96 186.92 35.07C186.68 35.66 186.44 36.24 186.21 36.82C185.97 37.4 185.75 37.95 185.53 38.48H183.45L183.44 38.49Z" fill="white"/>
<path d="M194.9 38.49C194.94 37.17 194.96 35.85 194.96 34.54C194.96 33.23 194.94 31.91 194.9 30.6C195.28 30.64 195.72 30.67 196.24 30.67C196.76 30.67 197.19 30.65 197.53 30.6C198.13 31.41 198.74 32.22 199.37 33.03C199.99 33.84 200.63 34.64 201.28 35.44C201.6 35.83 201.92 36.21 202.23 36.59C202.55 36.97 202.87 37.35 203.18 37.74L202.62 37.88C202.66 36.76 202.66 35.54 202.64 34.23C202.64 33.64 202.64 33.04 202.61 32.43C202.59 31.82 202.57 31.21 202.54 30.6C202.88 30.65 203.21 30.68 203.52 30.68C203.83 30.68 204.14 30.66 204.43 30.6C204.42 31.26 204.41 31.91 204.4 32.57C204.39 33.23 204.39 33.89 204.39 34.55C204.39 35.94 204.41 37.26 204.46 38.49H201.89C201.43 37.88 200.97 37.28 200.5 36.69C200.03 36.1 199.56 35.51 199.09 34.93C198.14 33.76 197.17 32.6 196.16 31.44L196.7 31.3C196.67 32.48 196.66 33.67 196.68 34.87C196.69 36.07 196.73 37.27 196.79 38.48H194.88L194.9 38.49Z" fill="white"/>
<path d="M211.48 38.63C210.33 38.63 209.35 38.46 208.54 38.13C207.73 37.8 207.12 37.32 206.7 36.69C206.28 36.07 206.07 35.33 206.07 34.48C206.07 33.63 206.29 32.86 206.73 32.25C207.17 31.64 207.81 31.18 208.64 30.87C209.47 30.56 210.47 30.4 211.62 30.4C212.38 30.4 213.18 30.47 214.04 30.6C214.9 30.73 215.71 30.96 216.49 31.29C216.45 31.62 216.43 31.93 216.43 32.22C216.43 32.51 216.45 32.76 216.49 32.99C215.8 32.57 215.04 32.25 214.19 32.03C213.34 31.8 212.49 31.69 211.65 31.69C210.87 31.69 210.2 31.8 209.65 32.03C209.09 32.26 208.67 32.58 208.37 33C208.07 33.42 207.93 33.92 207.93 34.49C207.93 35.06 208.07 35.57 208.35 36C208.63 36.43 209.04 36.77 209.58 37.01C210.12 37.25 210.75 37.37 211.49 37.37C212.23 37.37 212.94 37.23 213.6 36.95C214.26 36.67 214.76 36.2 215.11 35.52H214.26C213.97 35.52 213.69 35.52 213.42 35.54C212.86 35.55 212.35 35.57 211.87 35.6C211.4 35.63 211 35.66 210.69 35.7C210.72 35.49 210.74 35.25 210.73 34.98C210.73 34.71 210.7 34.44 210.65 34.19C211.62 34.23 212.62 34.25 213.67 34.25C214.72 34.25 215.69 34.23 216.61 34.19C216.57 34.46 216.56 34.77 216.56 35.13C216.56 35.49 216.58 35.83 216.61 36.15C216.23 36.96 215.57 37.57 214.64 38C213.71 38.43 212.66 38.64 211.49 38.64" fill="white"/>
<path d="M218.29 38.49C218.35 37.49 218.38 36.17 218.38 34.53C218.38 32.89 218.35 31.58 218.29 30.6C218.62 30.63 219.16 30.65 219.91 30.67C220.66 30.69 221.45 30.7 222.3 30.7C223.25 30.7 224.13 30.7 224.92 30.69C225.72 30.68 226.34 30.65 226.79 30.63C226.77 30.89 226.76 31.16 226.76 31.43C226.76 31.7 226.77 31.96 226.79 32.22C226.43 32.15 225.98 32.09 225.46 32.03C224.93 31.97 224.34 31.92 223.7 31.88C223.07 31.85 222.45 31.83 221.85 31.81C221.24 31.79 220.7 31.78 220.22 31.78C220.21 32.16 220.2 32.54 220.19 32.91C220.19 33.29 220.19 33.66 220.19 34.03C221.14 34.04 222.16 34.03 223.26 34C224.36 33.97 225.29 33.93 226.04 33.88C226.02 34.09 226.01 34.31 226.01 34.55C226.01 34.79 226.02 35.01 226.04 35.22C225.27 35.17 224.34 35.13 223.24 35.1C222.14 35.07 221.13 35.07 220.19 35.1C220.19 35.98 220.2 36.71 220.23 37.28C220.75 37.28 221.31 37.28 221.92 37.26C222.53 37.24 223.13 37.21 223.72 37.17C224.33 37.13 224.9 37.09 225.44 37.03C225.98 36.97 226.43 36.91 226.8 36.85C226.78 37.11 226.77 37.38 226.77 37.66C226.77 37.94 226.78 38.21 226.8 38.47H218.3L218.29 38.49Z" fill="white"/>
<path d="M228.54 38.49C228.58 37.17 228.6 35.85 228.6 34.54C228.6 33.23 228.58 31.91 228.54 30.6C228.89 30.65 229.24 30.68 229.58 30.68C229.92 30.68 230.24 30.66 230.53 30.6C230.48 31.49 230.45 32.55 230.43 33.79C230.42 35.15 230.43 36.33 230.45 37.31C231.38 37.31 232.51 37.27 233.87 37.19C235.22 37.11 236.23 37.02 236.9 36.9C236.88 37.22 236.87 37.5 236.87 37.74C236.87 37.98 236.88 38.23 236.9 38.49H228.54Z" fill="white"/>
<path d="M238.5 38.49C238.56 37.49 238.59 36.17 238.59 34.53C238.59 32.89 238.56 31.58 238.5 30.6C238.83 30.63 239.37 30.65 240.12 30.67C240.87 30.69 241.66 30.7 242.5 30.7C243.45 30.7 244.33 30.7 245.12 30.69C245.92 30.68 246.54 30.65 246.99 30.63C246.97 30.89 246.96 31.16 246.96 31.43C246.96 31.7 246.97 31.96 246.99 32.22C246.63 32.15 246.18 32.09 245.65 32.03C245.12 31.97 244.53 31.92 243.89 31.88C243.26 31.85 242.64 31.83 242.04 31.81C241.43 31.79 240.89 31.78 240.41 31.78C240.4 32.16 240.39 32.54 240.38 32.91C240.38 33.29 240.38 33.66 240.38 34.03C241.33 34.04 242.35 34.03 243.45 34C244.55 33.97 245.48 33.93 246.23 33.88C246.21 34.09 246.2 34.31 246.2 34.55C246.2 34.79 246.21 35.01 246.23 35.22C245.46 35.17 244.53 35.13 243.43 35.1C242.33 35.07 241.32 35.07 240.38 35.1C240.38 35.98 240.39 36.71 240.42 37.28C240.94 37.28 241.5 37.28 242.11 37.26C242.72 37.24 243.32 37.21 243.91 37.17C244.52 37.13 245.09 37.09 245.63 37.03C246.17 36.97 246.62 36.91 246.99 36.85C246.97 37.11 246.96 37.38 246.96 37.66C246.96 37.94 246.97 38.21 246.99 38.47H238.49L238.5 38.49Z" fill="white"/>
<path d="M253.62 38.6C252.71 38.6 251.82 38.52 250.96 38.35C250.1 38.18 249.31 37.97 248.58 37.7C248.62 37.4 248.64 37.11 248.64 36.81C248.64 36.51 248.62 36.22 248.58 35.93C249.06 36.38 249.79 36.73 250.76 36.97C251.74 37.21 252.74 37.34 253.78 37.34C254.56 37.34 255.12 37.25 255.48 37.08C255.84 36.91 256.02 36.64 256.02 36.29C256.02 35.98 255.91 35.75 255.69 35.6C255.47 35.45 255.14 35.34 254.7 35.27C254.27 35.2 253.59 35.12 252.66 35.05C251.7 34.97 250.92 34.85 250.34 34.7C249.75 34.55 249.3 34.33 248.98 34.03C248.66 33.73 248.5 33.32 248.5 32.81C248.5 32.02 248.86 31.43 249.57 31.04C250.28 30.65 251.36 30.46 252.8 30.46C253.58 30.46 254.28 30.5 254.89 30.58C255.5 30.66 256.14 30.78 256.81 30.94C257.15 31.01 257.39 31.06 257.53 31.1C257.5 31.3 257.48 31.49 257.48 31.69C257.48 31.88 257.48 32.08 257.48 32.27C257.48 32.36 257.49 32.44 257.5 32.52C257.5 32.6 257.52 32.68 257.53 32.76C256.79 32.46 256.02 32.21 255.24 32.02C254.45 31.83 253.62 31.73 252.74 31.73C251.94 31.73 251.35 31.81 250.98 31.98C250.61 32.15 250.42 32.41 250.42 32.77C250.42 33.05 250.52 33.27 250.72 33.43C250.92 33.59 251.23 33.72 251.65 33.8C252.07 33.89 252.67 33.96 253.43 34.01C253.64 34.02 253.79 34.04 253.89 34.05C254.8 34.13 255.54 34.24 256.12 34.39C256.7 34.54 257.14 34.77 257.47 35.07C257.79 35.38 257.95 35.79 257.95 36.29C257.95 37.07 257.59 37.66 256.87 38.04C256.15 38.42 255.07 38.61 253.63 38.61" fill="white"/>
<path d="M44.39 10.33C44.39 10.33 56.32 18.49 53.82 30.24C53.82 30.24 54.3 21.18 44.39 10.33Z" fill="#007960"/>
<path d="M46.3 14.73C46.3 14.73 56.49 26.42 51.35 36.87C51.35 36.87 53.31 26.03 46.3 14.73Z" fill="#6DA796"/>
<path d="M46.92 18.47C46.92 18.47 54.99 33.65 45.98 43.52C45.98 43.52 51.49 32.41 46.92 18.47Z" fill="#ACCFC7"/>
<path d="M46.63 23.89C46.63 23.89 50.91 39.2 40.14 46.07C40.14 46.07 47.75 37.71 46.63 23.89Z" fill="#C1C7CD"/>
<path d="M43.37 29.37C43.37 29.37 42.17 44.06 31.03 47.08C31.03 47.08 40.35 41.55 43.37 29.37Z" fill="#BBBFC5"/>
<path d="M45.05 26.58C45.05 26.58 46.94 41.61 35.41 47.24C35.41 47.24 43.92 40.59 45.05 26.58Z" fill="#E1E2E6"/>
<path d="M40.88 33.07C40.88 33.07 35.24 47.52 23.59 47.8C23.59 47.8 34.11 44.52 40.88 33.07Z" fill="#CB6865"/>
<path d="M38.05 35.38C38.05 35.38 28.33 49.57 15.41 46.15C15.41 46.15 27.81 45.89 38.05 35.38Z" fill="#C96D74"/>
<path d="M32.73 38.39C32.73 38.39 20.68 48.68 9.84 41.93C9.84 41.93 21.07 45.16 32.73 38.39Z" fill="#BA454F"/>
<path d="M70.15 10.33C70.15 10.33 58.22 18.49 60.72 30.24C60.72 30.24 60.24 21.18 70.15 10.33Z" fill="#007960"/>
<path d="M68.24 14.73C68.24 14.73 58.05 26.42 63.19 36.87C63.19 36.87 61.23 26.03 68.24 14.73Z" fill="#6DA796"/>
<path d="M67.62 18.47C67.62 18.47 59.54 33.65 68.56 43.52C68.56 43.52 63.05 32.41 67.62 18.47Z" fill="#ACCFC7"/>
<path d="M67.9 23.89C67.9 23.89 63.62 39.2 74.39 46.07C74.39 46.07 66.78 37.71 67.9 23.89Z" fill="#C1C7CD"/>
<path d="M71.17 29.37C71.17 29.37 72.37 44.06 83.51 47.08C83.51 47.08 74.19 41.55 71.17 29.37Z" fill="#BBBFC5"/>
<path d="M69.48 26.58C69.48 26.58 67.59 41.61 79.12 47.24C79.12 47.24 70.61 40.59 69.48 26.58Z" fill="#E1E2E6"/>
<path d="M73.65 33.07C73.65 33.07 79.29 47.52 90.94 47.8C90.94 47.8 80.42 44.52 73.65 33.07Z" fill="#CB6865"/>
<path d="M76.49 35.38C76.49 35.38 86.21 49.57 99.13 46.15C99.13 46.15 86.73 45.89 76.49 35.38Z" fill="#C96D74"/>
<path d="M81.81 38.39C81.81 38.39 93.86 48.68 104.7 41.93C104.7 41.93 93.47 45.16 81.81 38.39Z" fill="#BA454F"/>
</svg>
