<svg width="206" height="117" viewBox="0 0 206 117" fill="none" xmlns="http://www.w3.org/2000/svg">
<g clip-path="url(#clip0_17_1667)">
<path d="M21.9716 101.334C22.5291 101.342 23.128 101.351 23.7681 101.351C24.4083 101.351 25.003 101.347 25.5564 101.334L25.701 101.845C25.1062 101.841 24.4537 101.836 23.7433 101.836C23.033 101.836 22.3804 101.836 21.7857 101.845L21.9674 101.334H21.9716ZM20.3733 103.194C20.6046 102.745 20.8358 102.281 21.0671 101.807C21.2984 101.334 21.5297 100.865 21.7609 100.4C22.3185 99.2545 22.7645 98.3247 23.0991 97.6066C23.289 97.6273 23.5162 97.6356 23.7764 97.6398C24.0366 97.6398 24.2472 97.6315 24.4124 97.6066C24.7717 98.3786 25.2219 99.3126 25.7629 100.4C26.1842 101.255 26.6509 102.185 27.1589 103.194H26.2379C26.1305 102.912 25.9364 102.472 25.6555 101.882C25.449 101.417 25.193 100.869 24.8874 100.242C24.5817 99.6156 24.1894 98.8602 23.7062 97.9718H23.7433C23.702 98.0341 23.2477 98.9722 22.3763 100.786C22.1905 101.193 22.0046 101.596 21.8146 102.002C21.6247 102.405 21.4388 102.804 21.2612 103.194H20.3691H20.3733Z" fill="white"/>
<path d="M28.1872 103.194C28.212 102.359 28.2244 101.417 28.2244 100.367C28.2244 99.3168 28.212 98.3994 28.1872 97.6066C28.5176 97.6149 28.9265 97.6273 29.4097 97.6356C29.8929 97.6439 30.3968 97.6522 30.9213 97.6522C31.4788 97.6522 32.0116 97.6522 32.5113 97.6439C33.011 97.6398 33.4488 97.6315 33.8205 97.619C33.8164 97.7352 33.8123 97.8515 33.8123 97.9677C33.8123 98.0839 33.8123 98.2001 33.8205 98.3164C33.4942 98.2915 33.1308 98.2666 32.7385 98.2458C32.342 98.2209 31.9249 98.2043 31.4871 98.1877C31.0534 98.1711 30.628 98.1628 30.2068 98.1545C29.7855 98.1462 29.389 98.1462 29.0091 98.1545C29.0049 98.4949 29.0008 98.8311 28.9967 99.1632C28.9967 99.4994 28.9967 99.8356 28.9967 100.172C29.7029 100.18 30.4339 100.18 31.1938 100.168C31.9538 100.155 32.6476 100.139 33.2795 100.118C33.2671 100.213 33.263 100.313 33.263 100.417C33.263 100.521 33.2671 100.62 33.2795 100.716C32.6435 100.699 31.9496 100.687 31.1856 100.678C30.4257 100.67 29.6947 100.666 28.9967 100.67C28.9967 101.517 29.0049 102.168 29.0173 102.633C29.4097 102.633 29.8186 102.633 30.2398 102.625C30.6611 102.621 31.0823 102.609 31.4995 102.596C31.9207 102.579 32.3296 102.563 32.7261 102.538C33.1225 102.517 33.486 102.492 33.8164 102.472C33.8123 102.588 33.8081 102.708 33.8081 102.829C33.8081 102.949 33.8081 103.069 33.8164 103.185H28.1831L28.1872 103.194Z" fill="white"/>
<path d="M35.9227 100.491L36.4265 100.508C36.6785 100.512 36.9221 100.516 37.1534 100.521C37.3888 100.521 37.6036 100.521 37.7977 100.521C38.38 100.521 38.855 100.487 39.2143 100.413C39.5736 100.342 39.8503 100.218 40.0362 100.039C40.2261 99.8605 40.3211 99.6115 40.3211 99.2877C40.3211 98.8809 40.1518 98.5903 39.8131 98.416C39.4745 98.2375 38.9789 98.1503 38.3181 98.1503H37.5788C37.331 98.1503 37.0915 98.1503 36.8519 98.1586H35.9309C35.9268 98.5364 35.9227 98.9224 35.9185 99.3085C35.9185 99.6945 35.9185 100.089 35.9185 100.487M35.1215 103.194C35.1462 102.384 35.1586 101.455 35.1586 100.4C35.1586 99.3458 35.1462 98.416 35.1215 97.6065H37.0378C37.2484 97.6024 37.4632 97.5982 37.6821 97.5941C37.8968 97.5941 38.1198 97.5941 38.347 97.5941C39.2928 97.5941 39.999 97.7269 40.4615 97.9884C40.9241 98.2499 41.1554 98.665 41.1554 99.2254C41.1554 99.6862 41.0067 100.039 40.7135 100.28C40.4202 100.521 40.0775 100.682 39.6934 100.753C39.3093 100.828 38.888 100.861 38.4378 100.861V100.923C39.1317 101.01 39.7223 101.243 40.2055 101.621C40.6887 101.998 41.0852 102.525 41.3908 103.19H40.3129C40.1559 102.679 39.9453 102.268 39.6768 101.961C39.4084 101.654 39.0739 101.421 38.665 101.276C38.2561 101.127 37.7564 101.044 37.1617 101.031C36.9097 101.023 36.6826 101.015 36.4802 101.015H35.9268C35.9309 101.612 35.9392 102.002 35.9433 102.185C35.9475 102.364 35.9516 102.534 35.9598 102.696C35.964 102.862 35.9681 103.024 35.9764 103.194H35.1215Z" fill="white"/>
<path d="M45.9132 102.737C46.5079 102.737 47.02 102.646 47.4454 102.467C47.8749 102.289 48.2012 102.023 48.4366 101.679C48.6679 101.33 48.7835 100.911 48.7835 100.413C48.7835 99.9145 48.6679 99.5077 48.4366 99.1507C48.2053 98.7937 47.8749 98.5198 47.4454 98.333C47.0159 98.142 46.5037 98.0466 45.9173 98.0466C45.3308 98.0466 44.8063 98.142 44.3768 98.333C43.9473 98.5239 43.621 98.7937 43.3897 99.1507C43.1584 99.5036 43.0469 99.927 43.0469 100.417C43.0469 100.907 43.1626 101.334 43.3897 101.683C43.6169 102.027 43.9473 102.293 44.3768 102.472C44.8063 102.65 45.3184 102.741 45.9173 102.741M45.9132 103.285C45.1491 103.285 44.4883 103.173 43.9431 102.945C43.3939 102.716 42.9726 102.389 42.6794 101.953C42.3861 101.521 42.2375 101.002 42.2375 100.4C42.2375 99.7983 42.382 99.267 42.6752 98.8311C42.9685 98.3994 43.3856 98.0715 43.9349 97.8432C44.4842 97.619 45.145 97.5069 45.9132 97.5069C46.6813 97.5069 47.3339 97.619 47.8832 97.8473C48.4325 98.0756 48.8537 98.4035 49.1428 98.8394C49.4319 99.2711 49.5765 99.7941 49.5765 100.4C49.5765 101.006 49.4319 101.521 49.1428 101.953C48.8537 102.384 48.4325 102.716 47.8832 102.945C47.3339 103.173 46.6772 103.285 45.9132 103.285Z" fill="white"/>
<path d="M50.898 103.194C50.9228 102.426 50.9352 101.508 50.9352 100.442C50.9352 99.3749 50.9228 98.4326 50.898 97.6065H52.8391C53.0498 97.6024 53.2645 97.5982 53.4834 97.5941C53.6982 97.5941 53.9212 97.5941 54.1483 97.5941C54.7389 97.5941 55.2263 97.6605 55.6104 97.7975C55.9945 97.9345 56.2836 98.142 56.4777 98.4243C56.6718 98.7066 56.7668 99.0594 56.7668 99.4828C56.7668 99.873 56.6759 100.209 56.4983 100.491C56.3207 100.774 56.0399 100.994 55.6599 101.147C55.28 101.301 54.7968 101.38 54.2144 101.38H51.5712V100.857H51.8851C51.9884 100.857 52.0916 100.857 52.1907 100.865C52.4964 100.865 52.802 100.865 53.1076 100.865C53.4132 100.865 53.723 100.865 54.0327 100.865C54.6687 100.865 55.1478 100.753 55.4741 100.525C55.8003 100.296 55.9655 99.9643 55.9655 99.5243C55.9655 99.2171 55.8912 98.9598 55.7425 98.7522C55.5938 98.5488 55.375 98.3952 55.0859 98.2956C54.7968 98.196 54.4374 98.1462 54.0121 98.1462H53.4462C53.2563 98.1462 53.0622 98.1462 52.8722 98.1545H51.7034C51.6951 99.0096 51.691 99.8813 51.7034 100.765C51.7117 101.65 51.7323 102.459 51.7695 103.185H50.9104L50.898 103.194Z" fill="white"/>
<path d="M64.461 100.355C64.461 100.973 64.3288 101.504 64.0686 101.944C63.8084 102.388 63.4326 102.725 62.9411 102.961C62.4497 103.198 61.8673 103.314 61.1859 103.314C60.5044 103.314 59.9221 103.198 59.4306 102.961C58.9392 102.725 58.5675 102.388 58.3114 101.944C58.0553 101.5 57.9273 100.973 57.9273 100.355C57.9273 99.8273 57.9273 99.3375 57.9191 98.8768C57.9149 98.4201 57.9067 97.9967 57.8984 97.6066C58.0388 97.6273 58.1834 97.6356 58.3279 97.6356C58.4725 97.6356 58.6088 97.6273 58.7368 97.6066C58.7285 97.9967 58.7203 98.4201 58.7161 98.8768C58.712 99.3334 58.7079 99.8315 58.7079 100.367C58.7079 100.869 58.8029 101.297 58.997 101.654C59.1911 102.011 59.4719 102.285 59.8478 102.476C60.2195 102.667 60.6696 102.758 61.19 102.758C61.7104 102.758 62.1688 102.662 62.5405 102.476C62.9122 102.285 63.1972 102.011 63.3913 101.654C63.5854 101.297 63.6845 100.869 63.6845 100.367C63.6845 99.8149 63.6845 99.3126 63.6804 98.8602C63.6804 98.4077 63.6721 97.9884 63.6597 97.6024C63.796 97.6232 63.9365 97.6315 64.0851 97.6315C64.2338 97.6315 64.3701 97.6232 64.4981 97.6024C64.4857 97.9884 64.4816 98.4118 64.4734 98.8768C64.4692 99.3417 64.4651 99.8315 64.4651 100.35" fill="white"/>
<path d="M65.8569 103.194C65.8817 102.359 65.8941 101.417 65.8941 100.367C65.8941 99.3168 65.8817 98.3994 65.8569 97.6066C66.1873 97.6149 66.5962 97.6273 67.0794 97.6356C67.5626 97.6439 68.0664 97.6522 68.591 97.6522C69.1485 97.6522 69.6771 97.6522 70.181 97.6439C70.6807 97.6398 71.1185 97.6315 71.4902 97.619C71.4861 97.7352 71.482 97.8515 71.482 97.9677C71.482 98.0839 71.482 98.2001 71.4902 98.3164C71.1639 98.2915 70.8005 98.2666 70.4082 98.2458C70.0117 98.2209 69.5945 98.2043 69.1568 98.1877C68.7231 98.1711 68.2977 98.1628 67.8765 98.1545C67.4552 98.1462 67.0587 98.1462 66.6788 98.1545C66.6746 98.4949 66.6705 98.8311 66.6664 99.1632C66.6664 99.4994 66.6664 99.8356 66.6664 100.172C67.3726 100.18 68.1036 100.18 68.8635 100.168C69.6235 100.155 70.3173 100.139 70.9492 100.118C70.9409 100.213 70.9327 100.313 70.9327 100.417C70.9327 100.521 70.9368 100.62 70.9492 100.716C70.3132 100.699 69.6152 100.687 68.8553 100.678C68.0954 100.67 67.3643 100.666 66.6664 100.67C66.6664 101.517 66.6746 102.168 66.6912 102.633C67.0835 102.633 67.4924 102.633 67.9136 102.625C68.3349 102.621 68.7562 102.609 69.1733 102.596C69.5945 102.579 70.0034 102.563 70.3999 102.538C70.7964 102.517 71.1598 102.492 71.4902 102.472C71.4861 102.588 71.482 102.708 71.482 102.829C71.482 102.949 71.482 103.069 71.4902 103.185H65.8569V103.194Z" fill="white"/>
<path d="M73.5924 100.491L74.1003 100.508C74.3523 100.512 74.5959 100.516 74.8272 100.521C75.0626 100.521 75.2774 100.521 75.4715 100.521C76.0538 100.521 76.5288 100.487 76.8881 100.413C77.2474 100.342 77.5241 100.218 77.71 100.039C77.8999 99.8605 77.9949 99.6115 77.9949 99.2877C77.9949 98.8809 77.8256 98.5903 77.4869 98.416C77.1483 98.2416 76.6527 98.1503 75.9919 98.1503H75.2526C75.0048 98.1503 74.7653 98.1503 74.5257 98.1586H73.6047C73.6006 98.5364 73.5965 98.9224 73.5924 99.3085C73.5924 99.6945 73.5882 100.089 73.5882 100.487M72.7911 103.194C72.8159 102.384 72.8283 101.455 72.8283 100.4C72.8283 99.3458 72.8159 98.416 72.7911 97.6065H74.7075C74.9181 97.6024 75.1328 97.5982 75.3476 97.5941C75.5624 97.5941 75.7854 97.5941 76.0125 97.5941C76.9583 97.5941 77.6645 97.7269 78.1271 97.9884C78.5896 98.2499 78.8209 98.665 78.8209 99.2254C78.8209 99.6862 78.6722 100.039 78.379 100.28C78.0858 100.521 77.743 100.682 77.3589 100.753C76.9748 100.828 76.5536 100.861 76.1034 100.861V100.923C76.7972 101.01 77.3878 101.243 77.871 101.621C78.3542 101.998 78.7507 102.525 79.0563 103.19H77.9784C77.8215 102.679 77.6108 102.268 77.3424 101.961C77.0739 101.654 76.7394 101.421 76.3305 101.276C75.9217 101.127 75.4219 101.044 74.8272 101.031C74.5753 101.023 74.3481 101.015 74.1458 101.015H73.5965C73.6006 101.612 73.6047 102.002 73.613 102.185C73.6171 102.364 73.6213 102.534 73.6295 102.696C73.6337 102.862 73.6378 103.024 73.646 103.194H72.7911Z" fill="white"/>
<path d="M82.4801 103.194C82.5008 102.463 82.5132 101.654 82.5132 100.761C82.5132 99.8688 82.5132 99.0013 82.5008 98.1628C81.968 98.1669 81.4641 98.1794 80.9851 98.196C80.506 98.2126 80.0434 98.2375 79.585 98.2666C79.6015 98.1545 79.6056 98.0466 79.6056 97.9345C79.6056 97.8224 79.5974 97.7145 79.585 97.6066C80.7579 97.6232 81.8647 97.6273 82.9096 97.6273C83.9545 97.6273 85.0614 97.619 86.2384 97.6066C86.2302 97.7186 86.2219 97.8266 86.2219 97.9345C86.2219 98.0424 86.226 98.1545 86.2384 98.2666C85.78 98.2375 85.3133 98.2126 84.8342 98.196C84.3551 98.1794 83.843 98.1669 83.302 98.1628C83.2896 99.0054 83.2896 99.873 83.302 100.765C83.3102 101.662 83.3226 102.472 83.3433 103.194H82.4842H82.4801Z" fill="white"/>
<path d="M90.3354 102.737C90.9301 102.737 91.4422 102.646 91.8676 102.467C92.2971 102.289 92.6234 102.023 92.8547 101.679C93.0859 101.33 93.2016 100.911 93.2016 100.413C93.2016 99.9145 93.0859 99.5077 92.8547 99.1507C92.6234 98.7937 92.293 98.5198 91.8635 98.333C91.4339 98.142 90.9218 98.0466 90.3354 98.0466C89.7489 98.0466 89.2244 98.142 88.7949 98.333C88.3654 98.5239 88.0391 98.7937 87.8078 99.1507C87.5765 99.5036 87.465 99.927 87.465 100.417C87.465 100.907 87.5807 101.334 87.8078 101.683C88.035 102.027 88.3654 102.293 88.7949 102.472C89.2244 102.65 89.7365 102.741 90.3354 102.741M90.3354 103.285C89.5713 103.285 88.9105 103.173 88.3654 102.945C87.8161 102.716 87.3948 102.389 87.1016 101.953C86.8083 101.521 86.6597 101.002 86.6597 100.4C86.6597 99.7983 86.8042 99.267 87.0974 98.8311C87.3907 98.3994 87.8119 98.0715 88.3571 97.8432C88.9064 97.619 89.5672 97.5069 90.3354 97.5069C91.1035 97.5069 91.7561 97.619 92.3054 97.8473C92.8547 98.0756 93.2759 98.4035 93.565 98.8394C93.8541 99.2711 93.9987 99.7941 93.9987 100.4C93.9987 101.006 93.8541 101.521 93.565 101.953C93.2759 102.384 92.8547 102.716 92.3054 102.945C91.7561 103.173 91.0994 103.285 90.3354 103.285Z" fill="white"/>
<path d="M97.8272 103.194C97.852 102.384 97.8644 101.455 97.8644 100.4C97.8644 99.3458 97.852 98.416 97.8272 97.6066C97.9759 97.6273 98.1245 97.6356 98.265 97.6356C98.4054 97.6356 98.5417 97.6273 98.6738 97.6066C98.6532 98.4201 98.6449 99.3541 98.6491 100.408C98.6491 101.463 98.6656 102.389 98.6904 103.194H97.8313H97.8272Z" fill="white"/>
<path d="M100.351 103.194C100.371 102.264 100.379 101.33 100.379 100.4C100.379 99.4703 100.367 98.5364 100.351 97.6066C100.52 97.6232 100.718 97.6315 100.937 97.6315C101.156 97.6315 101.342 97.6273 101.499 97.6066C102.027 98.2043 102.564 98.7979 103.109 99.3915C103.655 99.9809 104.2 100.575 104.757 101.168C105.017 101.45 105.286 101.737 105.554 102.019C105.823 102.301 106.091 102.584 106.36 102.87L106.116 102.924C106.124 102.214 106.124 101.326 106.116 100.259C106.116 99.8232 106.116 99.3832 106.104 98.939C106.095 98.4949 106.087 98.0507 106.079 97.6107C106.223 97.6315 106.364 97.6398 106.496 97.6398C106.628 97.6398 106.76 97.6315 106.884 97.6107C106.88 98.0756 106.876 98.5405 106.872 99.0054C106.872 99.4703 106.872 99.9353 106.872 100.4C106.872 101.508 106.884 102.438 106.909 103.194H105.777C105.385 102.754 104.989 102.318 104.584 101.882C104.179 101.446 103.778 101.015 103.382 100.583C102.573 99.7111 101.755 98.8518 100.929 98.0009L101.148 97.9469C101.139 98.8103 101.135 99.682 101.139 100.562C101.144 101.442 101.156 102.318 101.177 103.194H100.355H100.351Z" fill="white"/>
<path d="M110.832 103.194C110.853 102.463 110.866 101.654 110.866 100.761C110.866 99.8688 110.866 99.0013 110.853 98.1628C110.32 98.1669 109.817 98.1794 109.337 98.196C108.862 98.2126 108.396 98.2375 107.937 98.2666C107.954 98.1545 107.962 98.0466 107.962 97.9345C107.962 97.8224 107.954 97.7145 107.937 97.6066C109.11 97.6232 110.221 97.6273 111.266 97.6273C112.311 97.6273 113.418 97.619 114.591 97.6066C114.583 97.7186 114.574 97.8266 114.574 97.9345C114.574 98.0424 114.578 98.1545 114.591 98.2666C114.132 98.2375 113.666 98.2126 113.187 98.196C112.708 98.1794 112.2 98.1669 111.654 98.1628C111.646 99.0054 111.642 99.873 111.654 100.765C111.663 101.662 111.675 102.472 111.696 103.194H110.837H110.832Z" fill="white"/>
<path d="M115.627 103.194C115.652 102.359 115.665 101.417 115.665 100.367C115.665 99.3168 115.652 98.3994 115.627 97.6066C115.958 97.6149 116.367 97.6273 116.85 97.6356C117.333 97.6439 117.837 97.6522 118.362 97.6522C118.919 97.6522 119.448 97.6522 119.952 97.6439C120.451 97.6398 120.889 97.6315 121.261 97.619C121.257 97.7352 121.253 97.8515 121.253 97.9677C121.253 98.0839 121.253 98.2001 121.261 98.3164C120.934 98.2915 120.571 98.2666 120.179 98.2458C119.782 98.2209 119.365 98.2043 118.927 98.1877C118.494 98.1711 118.068 98.1628 117.647 98.1545C117.226 98.1462 116.829 98.1462 116.449 98.1545C116.445 98.4949 116.441 98.8311 116.437 99.1632C116.437 99.4994 116.437 99.8356 116.437 100.172C117.143 100.18 117.874 100.18 118.634 100.168C119.394 100.155 120.088 100.139 120.72 100.118C120.711 100.213 120.703 100.313 120.703 100.417C120.703 100.521 120.707 100.62 120.72 100.716C120.084 100.699 119.386 100.687 118.626 100.678C117.866 100.67 117.135 100.666 116.437 100.67C116.437 101.517 116.445 102.168 116.458 102.633C116.85 102.633 117.259 102.633 117.68 102.625C118.101 102.621 118.523 102.609 118.94 102.596C119.361 102.579 119.77 102.563 120.166 102.538C120.563 102.517 120.926 102.492 121.257 102.472C121.253 102.588 121.248 102.708 121.248 102.829C121.248 102.949 121.248 103.069 121.257 103.185H115.623L115.627 103.194Z" fill="white"/>
<path d="M123.363 100.491L123.871 100.508C124.123 100.512 124.367 100.516 124.598 100.521C124.833 100.521 125.048 100.521 125.242 100.521C125.824 100.521 126.299 100.487 126.659 100.413C127.018 100.342 127.295 100.218 127.481 100.039C127.671 99.8605 127.766 99.6115 127.766 99.2877C127.766 98.8809 127.596 98.5903 127.258 98.416C126.919 98.2375 126.423 98.1503 125.762 98.1503H125.023C124.775 98.1503 124.536 98.1503 124.296 98.1586H123.375C123.371 98.5364 123.367 98.9224 123.363 99.3085C123.363 99.6945 123.359 100.089 123.359 100.487M122.562 103.194C122.587 102.384 122.599 101.455 122.599 100.4C122.599 99.3458 122.587 98.416 122.562 97.6065H124.478C124.689 97.6024 124.903 97.5982 125.118 97.5941C125.333 97.5941 125.556 97.5941 125.783 97.5941C126.729 97.5941 127.435 97.7269 127.898 97.9884C128.36 98.2499 128.592 98.665 128.592 99.2254C128.592 99.6862 128.443 100.039 128.15 100.28C127.856 100.521 127.514 100.682 127.13 100.753C126.745 100.828 126.324 100.861 125.874 100.861V100.923C126.568 101.01 127.158 101.243 127.642 101.621C128.125 101.998 128.521 102.525 128.827 103.19H127.749C127.592 102.679 127.381 102.268 127.113 101.961C126.845 101.654 126.51 101.421 126.101 101.276C125.692 101.127 125.193 101.044 124.598 101.031C124.346 101.023 124.119 101.015 123.92 101.015H123.367C123.371 101.612 123.375 102.002 123.384 102.185C123.388 102.364 123.392 102.534 123.4 102.696C123.408 102.858 123.408 103.024 123.417 103.194H122.562Z" fill="white"/>
<path d="M130.07 103.194C130.091 102.264 130.099 101.33 130.099 100.4C130.099 99.4703 130.087 98.5364 130.07 97.6066C130.239 97.6232 130.438 97.6315 130.656 97.6315C130.875 97.6315 131.061 97.6273 131.218 97.6066C131.747 98.2043 132.284 98.7979 132.829 99.3915C133.374 99.9809 133.919 100.575 134.477 101.168C134.737 101.45 135.005 101.737 135.274 102.019C135.542 102.301 135.811 102.584 136.079 102.87L135.836 102.924C135.844 102.214 135.844 101.326 135.836 100.259C135.836 99.8232 135.836 99.3832 135.823 98.939C135.815 98.4949 135.807 98.0507 135.798 97.6107C135.943 97.6315 136.083 97.6398 136.215 97.6398C136.348 97.6398 136.48 97.6315 136.604 97.6107C136.6 98.0756 136.595 98.5405 136.591 99.0054C136.591 99.4703 136.587 99.9353 136.587 100.4C136.587 101.508 136.6 102.438 136.624 103.194H135.493C135.1 102.754 134.704 102.318 134.299 101.882C133.894 101.446 133.494 101.015 133.097 100.583C132.288 99.7111 131.47 98.8518 130.644 98.0009L130.863 97.9469C130.855 98.8103 130.851 99.682 130.855 100.562C130.859 101.442 130.871 102.318 130.892 103.194H130.07Z" fill="white"/>
<path d="M139.342 101.334C139.899 101.342 140.498 101.351 141.138 101.351C141.779 101.351 142.373 101.347 142.927 101.334L143.071 101.845C142.477 101.841 141.824 101.836 141.114 101.836C140.403 101.836 139.751 101.836 139.156 101.845L139.338 101.334H139.342ZM137.739 103.194C137.971 102.745 138.202 102.281 138.433 101.807C138.665 101.334 138.896 100.865 139.127 100.4C139.685 99.2545 140.131 98.3247 140.465 97.6066C140.655 97.6273 140.882 97.6356 141.143 97.6398C141.403 97.6398 141.613 97.6315 141.783 97.6066C142.138 98.3786 142.592 99.3126 143.133 100.4C143.554 101.255 144.021 102.185 144.529 103.194H143.608C143.501 102.912 143.307 102.472 143.026 101.882C142.819 101.417 142.563 100.869 142.258 100.242C141.952 99.6156 141.56 98.8602 141.076 97.9718H141.114C141.072 98.0341 140.618 98.9722 139.747 100.786C139.561 101.193 139.375 101.596 139.185 102.002C138.995 102.405 138.813 102.804 138.632 103.194H137.739Z" fill="white"/>
<path d="M148.758 103.298C147.961 103.298 147.28 103.181 146.71 102.949C146.14 102.716 145.706 102.38 145.413 101.94C145.116 101.5 144.967 100.977 144.967 100.375C144.967 99.7734 145.124 99.242 145.434 98.8062C145.748 98.3745 146.189 98.0465 146.768 97.8224C147.346 97.5982 148.027 97.4903 148.816 97.4903C149.299 97.4903 149.787 97.536 150.274 97.6314C150.761 97.7269 151.286 97.8888 151.843 98.1213C151.827 98.2582 151.823 98.3828 151.823 98.4949C151.823 98.6069 151.831 98.7356 151.843 98.8726C151.29 98.5779 150.765 98.3703 150.274 98.2499C149.783 98.1296 149.308 98.0673 148.853 98.0673C148.226 98.0631 147.676 98.1503 147.214 98.333C146.751 98.5156 146.392 98.7813 146.144 99.1258C145.896 99.4703 145.772 99.8896 145.772 100.375C145.772 100.861 145.888 101.264 146.123 101.621C146.359 101.973 146.702 102.247 147.164 102.434C147.623 102.625 148.18 102.721 148.833 102.721C149.394 102.721 149.927 102.638 150.427 102.472C150.927 102.305 151.401 102.023 151.864 101.616C151.856 101.741 151.856 101.865 151.864 101.986C151.872 102.106 151.889 102.227 151.909 102.355C151.488 102.675 151.026 102.912 150.526 103.065C150.026 103.219 149.44 103.298 148.758 103.298Z" fill="white"/>
<path d="M153.351 103.194C153.376 102.384 153.388 101.455 153.388 100.4C153.388 99.3458 153.376 98.416 153.351 97.6066C153.5 97.6273 153.648 97.6356 153.789 97.6356C153.929 97.6356 154.065 97.6273 154.197 97.6066C154.177 98.4201 154.169 99.3541 154.173 100.408C154.173 101.463 154.189 102.389 154.214 103.194H153.351Z" fill="white"/>
<path d="M159.294 102.737C159.889 102.737 160.401 102.646 160.826 102.467C161.256 102.289 161.582 102.023 161.817 101.679C162.049 101.33 162.164 100.911 162.164 100.413C162.164 99.9145 162.049 99.5077 161.817 99.1507C161.586 98.7937 161.256 98.5198 160.826 98.333C160.397 98.142 159.884 98.0466 159.298 98.0466C158.712 98.0466 158.183 98.142 157.758 98.333C157.328 98.5239 157.002 98.7937 156.77 99.1507C156.539 99.5036 156.428 99.927 156.428 100.417C156.428 100.907 156.543 101.334 156.77 101.683C156.998 102.027 157.328 102.293 157.758 102.472C158.187 102.65 158.699 102.741 159.298 102.741M159.294 103.285C158.53 103.285 157.869 103.173 157.324 102.945C156.775 102.716 156.353 102.389 156.06 101.953C155.767 101.521 155.618 101.002 155.618 100.4C155.618 99.7983 155.763 99.267 156.056 98.8311C156.349 98.3994 156.766 98.0715 157.316 97.8432C157.865 97.619 158.526 97.5069 159.294 97.5069C160.062 97.5069 160.715 97.619 161.264 97.8473C161.813 98.0756 162.234 98.4035 162.524 98.8394C162.813 99.2711 162.957 99.7941 162.957 100.4C162.957 101.006 162.813 101.521 162.524 101.953C162.234 102.384 161.813 102.716 161.264 102.945C160.715 103.173 160.058 103.285 159.294 103.285Z" fill="white"/>
<path d="M164.279 103.194C164.299 102.264 164.308 101.33 164.308 100.4C164.308 99.4703 164.299 98.5364 164.279 97.6066C164.448 97.6232 164.646 97.6315 164.865 97.6315C165.084 97.6315 165.27 97.6273 165.427 97.6066C165.956 98.2043 166.492 98.7979 167.034 99.3915C167.579 99.9809 168.124 100.575 168.681 101.168C168.942 101.45 169.21 101.737 169.478 102.019C169.747 102.301 170.015 102.584 170.284 102.87L170.04 102.924C170.053 102.214 170.053 101.326 170.04 100.259C170.04 99.8232 170.04 99.3832 170.028 98.939C170.02 98.4949 170.011 98.0507 170.003 97.6107C170.148 97.6315 170.288 97.6398 170.424 97.6398C170.561 97.6398 170.689 97.6315 170.812 97.6107C170.808 98.0756 170.804 98.5405 170.8 99.0054C170.8 99.4703 170.8 99.9353 170.8 100.4C170.8 101.508 170.812 102.438 170.837 103.194H169.706C169.313 102.754 168.917 102.318 168.512 101.882C168.107 101.446 167.707 101.015 167.31 100.583C166.501 99.7111 165.679 98.8518 164.857 98.0009L165.076 97.9469C165.068 98.8103 165.064 99.682 165.068 100.562C165.072 101.442 165.084 102.318 165.105 103.194H164.283H164.279Z" fill="white"/>
<path d="M173.555 101.334C174.112 101.342 174.711 101.351 175.351 101.351C175.991 101.351 176.586 101.347 177.14 101.334L177.284 101.845C176.689 101.841 176.037 101.836 175.327 101.836C174.616 101.836 173.964 101.836 173.369 101.845L173.551 101.334H173.555ZM171.952 103.194C172.184 102.745 172.415 102.281 172.646 101.807C172.877 101.334 173.109 100.865 173.34 100.4C173.898 99.2545 174.344 98.3247 174.678 97.6066C174.868 97.6273 175.095 97.6356 175.355 97.6398C175.616 97.6398 175.826 97.6315 175.996 97.6066C176.351 98.3786 176.805 99.3126 177.346 100.4C177.767 101.255 178.234 102.185 178.742 103.194H177.821C177.714 102.912 177.52 102.472 177.239 101.882C177.032 101.417 176.776 100.869 176.471 100.242C176.165 99.6156 175.773 98.8602 175.289 97.9718H175.327C175.285 98.0341 174.831 98.9722 173.96 100.786C173.774 101.193 173.588 101.596 173.398 102.002C173.208 102.405 173.026 102.804 172.844 103.194H171.952Z" fill="white"/>
<path d="M179.77 103.194C179.791 102.264 179.799 101.33 179.799 100.4C179.799 99.4703 179.787 98.5364 179.77 97.6066C179.927 97.6273 180.076 97.6356 180.221 97.6356C180.365 97.6356 180.497 97.6273 180.625 97.6066C180.601 98.5073 180.584 99.3251 180.58 100.064C180.576 100.99 180.576 101.849 180.58 102.638C181.319 102.638 182.141 102.625 183.037 102.596C183.938 102.567 184.706 102.534 185.346 102.484C185.342 102.621 185.338 102.741 185.338 102.853C185.338 102.965 185.338 103.073 185.346 103.19H179.775L179.77 103.194Z" fill="white"/>
<path d="M45.8264 116.863C45.8925 116.074 45.9256 114.937 45.9256 113.447C45.9256 111.957 45.8925 110.819 45.8264 110.03C46.099 110.072 46.7144 110.105 47.6808 110.13C48.6431 110.155 49.6343 110.159 50.6544 110.147C51.6745 110.134 52.422 110.105 52.9052 110.055C52.8805 110.329 52.8681 110.603 52.8681 110.881C52.8681 111.16 52.8805 111.434 52.9052 111.707C52.3849 111.562 51.6084 111.446 50.5718 111.363C49.5352 111.276 48.6142 111.243 47.813 111.255C47.7964 111.562 47.7841 111.882 47.7799 112.201C47.7799 112.521 47.7799 112.857 47.7923 113.202C48.4985 113.218 49.2708 113.21 50.1092 113.181C50.9476 113.148 51.6662 113.102 52.2692 113.048C52.2444 113.268 52.2321 113.492 52.2321 113.733C52.2321 113.974 52.2444 114.198 52.2692 114.414C51.6539 114.364 50.927 114.327 50.0927 114.302C49.2585 114.273 48.4903 114.269 47.7923 114.289C47.7923 115.327 47.8501 116.186 47.9658 116.867H45.8264V116.863Z" fill="white"/>
<path d="M54.0368 116.863C54.1029 116.074 54.136 114.937 54.136 113.447C54.136 111.957 54.1029 110.819 54.0368 110.03C54.2599 110.06 54.7059 110.089 55.3791 110.109C56.0481 110.13 56.7709 110.143 57.5473 110.151C58.4353 110.155 59.2406 110.151 59.9592 110.138C60.6779 110.122 61.2148 110.097 61.5741 110.06C61.5493 110.334 61.5369 110.607 61.5369 110.886C61.5369 111.164 61.5493 111.438 61.5741 111.712C61.3139 111.637 60.9628 111.571 60.5168 111.512C60.0749 111.454 59.571 111.4 59.0094 111.359C58.4601 111.321 57.9232 111.297 57.4028 111.276C56.8783 111.259 56.4198 111.251 56.0275 111.259C56.0151 111.537 56.0068 111.82 55.9986 112.098C55.9903 112.376 55.9903 112.658 55.9986 112.936C56.7915 112.953 57.663 112.949 58.617 112.915C59.571 112.882 60.3433 112.837 60.9381 112.783C60.9133 113.003 60.9009 113.231 60.9009 113.468C60.9009 113.704 60.9133 113.932 60.9381 114.148C60.3351 114.098 59.5545 114.061 58.6005 114.028C57.6465 113.999 56.7792 113.995 55.9986 114.02C55.9986 114.651 56.0151 115.194 56.044 115.651C56.4735 115.655 56.9485 115.651 57.4771 115.634C58.0016 115.618 58.5179 115.585 59.0259 115.543C59.5586 115.506 60.0501 115.456 60.5003 115.398C60.9504 115.335 61.3098 115.269 61.5741 115.198C61.5493 115.472 61.5369 115.751 61.5369 116.037C61.5369 116.323 61.5493 116.602 61.5741 116.875H54.041L54.0368 116.863Z" fill="white"/>
<path d="M62.9742 116.863C63.0237 115.722 63.0485 114.58 63.0485 113.443C63.0485 112.305 63.0237 111.168 62.9742 110.03C63.3417 110.084 63.7052 110.114 64.0562 110.118C64.4114 110.118 64.7335 110.093 65.0309 110.03C64.9813 110.632 64.9524 111.512 64.94 112.671C64.9276 113.874 64.94 114.871 64.9689 115.659C65.7123 115.655 66.6829 115.609 67.8765 115.526C69.0742 115.443 69.9043 115.344 70.371 115.223C70.3462 115.555 70.3338 115.846 70.3338 116.087C70.3338 116.328 70.3462 116.589 70.371 116.859H62.9742V116.863Z" fill="white"/>
<path d="M71.6843 116.863C71.7504 116.074 71.7834 114.937 71.7834 113.447C71.7834 111.957 71.7504 110.819 71.6843 110.03C72.0478 110.084 72.3988 110.114 72.7416 110.118C73.0844 110.118 73.4148 110.093 73.7452 110.03C73.6791 110.84 73.6502 111.986 73.6543 113.48C73.6585 114.97 73.6998 116.099 73.7741 116.863H71.6885H71.6843Z" fill="white"/>
<path d="M75.4013 116.863C75.4674 116.074 75.5004 114.937 75.5004 113.447C75.5004 111.957 75.4674 110.819 75.4013 110.03C75.868 110.035 76.2893 110.039 76.6692 110.039C77.0492 110.039 77.4126 110.035 77.7554 110.022C77.9949 110.01 78.2469 110.001 78.5029 109.997C78.759 109.997 79.0316 109.993 79.3124 109.993C80.2293 109.993 80.9685 110.068 81.5302 110.213C82.0878 110.358 82.5049 110.603 82.7733 110.944C83.0418 111.284 83.1781 111.745 83.1781 112.33C83.1781 112.845 83.0666 113.285 82.8394 113.642C82.6123 113.999 82.2282 114.281 81.6872 114.48C81.1461 114.68 80.4192 114.783 79.5065 114.783H77.1772V113.654C77.2557 113.654 77.3341 113.654 77.4085 113.658C77.4828 113.658 77.5572 113.667 77.6315 113.671C77.8628 113.675 78.0899 113.683 78.3171 113.688C78.5442 113.692 78.7714 113.696 79.0027 113.696C79.7874 113.696 80.3656 113.592 80.729 113.38C81.0966 113.169 81.2783 112.857 81.2783 112.438C81.2783 112.127 81.1957 111.886 81.0305 111.707C80.8653 111.533 80.6134 111.404 80.2747 111.33C79.936 111.255 79.49 111.214 78.9407 111.214C78.8209 111.214 78.6929 111.214 78.5607 111.218C78.4286 111.218 78.2923 111.226 78.1519 111.23C78.0073 111.234 77.8669 111.238 77.7265 111.243C77.5861 111.243 77.4539 111.247 77.33 111.247C77.3011 112.247 77.297 113.293 77.3218 114.377C77.3465 115.46 77.4044 116.286 77.4952 116.859H75.4096L75.4013 116.863Z" fill="white"/>
<path d="M84.4006 116.863C84.4667 116.074 84.4997 114.937 84.4997 113.447C84.4997 111.957 84.4667 110.819 84.4006 110.03C84.6236 110.06 85.0696 110.089 85.7428 110.109C86.4119 110.13 87.1346 110.143 87.9069 110.151C88.7949 110.155 89.6002 110.151 90.3189 110.138C91.0375 110.122 91.5744 110.097 91.9337 110.06C91.9089 110.334 91.8965 110.607 91.8965 110.886C91.8965 111.164 91.9089 111.438 91.9337 111.712C91.6735 111.637 91.3224 111.571 90.8764 111.512C90.4345 111.454 89.9306 111.4 89.369 111.359C88.8197 111.321 88.2828 111.297 87.7624 111.276C87.2379 111.259 86.7836 111.251 86.3912 111.259C86.3788 111.537 86.3706 111.82 86.3623 112.098C86.3582 112.376 86.3582 112.658 86.3623 112.936C87.1553 112.953 88.0267 112.949 88.9807 112.915C89.9348 112.882 90.7071 112.837 91.3018 112.783C91.277 113.003 91.2646 113.231 91.2646 113.468C91.2646 113.704 91.277 113.932 91.3018 114.148C90.6988 114.098 89.9182 114.061 88.9642 114.028C88.0102 113.999 87.1429 113.995 86.3623 114.02C86.3623 114.651 86.3788 115.194 86.4078 115.651C86.8373 115.655 87.3122 115.651 87.8409 115.634C88.3654 115.618 88.8816 115.585 89.3896 115.543C89.9224 115.506 90.4138 115.456 90.864 115.398C91.3142 115.335 91.6735 115.269 91.9378 115.198C91.913 115.472 91.9006 115.751 91.9006 116.037C91.9006 116.323 91.913 116.602 91.9378 116.875H84.4047L84.4006 116.863Z" fill="white"/>
<path d="M99.2644 109.25C99.4957 109.026 99.8343 108.598 100.289 107.963C100.301 107.951 100.359 107.876 100.462 107.735C100.685 107.776 101.082 107.797 101.643 107.797C102.205 107.797 102.601 107.776 102.824 107.735C102.639 107.855 102.44 107.984 102.238 108.117C102.036 108.25 101.833 108.383 101.627 108.52C101.102 108.872 100.747 109.113 100.565 109.25C100.462 109.238 100.247 109.229 99.9128 109.229C99.5783 109.229 99.3635 109.238 99.2603 109.25M98.4384 114.422C98.9175 114.447 99.4544 114.46 100.061 114.46C100.669 114.46 101.206 114.447 101.685 114.422L102.056 115.551C101.47 115.526 100.784 115.514 100.004 115.514C99.2231 115.514 98.5375 115.526 97.9511 115.551L98.4384 114.422ZM95.5557 116.863C95.8076 116.336 96.0678 115.775 96.3362 115.186C96.6006 114.597 96.8608 114.015 97.1086 113.447C97.6289 112.231 98.0956 111.093 98.5127 110.03C98.9423 110.084 99.475 110.114 100.107 110.122C100.743 110.13 101.239 110.097 101.594 110.03C102.077 111.247 102.552 112.384 103.019 113.447C103.411 114.356 103.927 115.497 104.567 116.863H102.321C102.126 116.257 101.875 115.547 101.557 114.734C101.226 113.87 100.912 113.09 100.619 112.388C100.326 111.687 100.111 111.226 99.9789 111.006H100.041C99.8674 111.309 99.4626 112.276 98.8266 113.903C98.6284 114.418 98.4343 114.929 98.2402 115.435C98.0502 115.937 97.8685 116.415 97.6991 116.863H95.5515H95.5557Z" fill="white"/>
<path d="M105.517 116.863C105.567 115.722 105.587 114.58 105.587 113.443C105.587 112.305 105.563 111.168 105.517 110.03C105.897 110.08 106.36 110.105 106.901 110.109C107.442 110.109 107.88 110.089 108.218 110.03C108.673 110.724 109.135 111.409 109.61 112.094C110.085 112.778 110.572 113.455 111.072 114.132C111.312 114.46 111.555 114.783 111.803 115.107C112.047 115.431 112.295 115.751 112.542 116.074L111.972 116.22C112.01 115.194 112.018 114.161 112.001 113.123C111.997 112.625 111.985 112.114 111.968 111.591C111.952 111.068 111.931 110.549 111.898 110.035C112.245 110.089 112.58 110.118 112.906 110.122C113.232 110.122 113.546 110.097 113.847 110.035C113.831 110.607 113.814 111.176 113.806 111.741C113.798 112.309 113.794 112.882 113.794 113.459C113.794 114.588 113.823 115.726 113.876 116.867H111.237C110.894 116.352 110.543 115.842 110.184 115.34C109.829 114.837 109.47 114.343 109.106 113.849C108.379 112.866 107.624 111.886 106.831 110.906L107.4 110.761C107.372 111.761 107.363 112.774 107.38 113.791C107.396 114.808 107.434 115.834 107.491 116.867H105.517V116.863Z" fill="white"/>
<path d="M119.873 117C118.87 117 118.015 116.855 117.304 116.564C116.594 116.274 116.057 115.858 115.689 115.315C115.326 114.775 115.14 114.14 115.14 113.409C115.14 112.646 115.334 111.998 115.718 111.463C116.107 110.931 116.664 110.533 117.391 110.259C118.118 109.989 118.989 109.852 119.997 109.852C120.666 109.852 121.381 109.91 122.132 110.03C122.884 110.151 123.594 110.346 124.267 110.628C124.218 110.973 124.197 111.297 124.197 111.587C124.197 111.878 124.218 112.143 124.259 112.367C123.685 111.998 123.028 111.703 122.285 111.487C121.542 111.272 120.782 111.164 120.001 111.164C119.39 111.164 118.865 111.255 118.419 111.438C117.973 111.62 117.635 111.878 117.399 112.218C117.164 112.554 117.044 112.953 117.044 113.405C117.044 113.858 117.156 114.26 117.379 114.609C117.602 114.954 117.928 115.223 118.353 115.414C118.779 115.605 119.287 115.701 119.873 115.701C120.398 115.701 120.926 115.609 121.451 115.423C121.975 115.236 122.413 114.9 122.764 114.406C122.529 114.406 122.289 114.406 122.054 114.41C121.814 114.41 121.583 114.422 121.352 114.431C120.893 114.443 120.476 114.464 120.1 114.493C119.724 114.522 119.439 114.559 119.241 114.601C119.283 114.389 119.299 114.14 119.291 113.854C119.283 113.567 119.254 113.293 119.204 113.032C120.026 113.073 120.889 113.094 121.794 113.094C122.698 113.094 123.536 113.073 124.309 113.032C124.267 113.318 124.247 113.65 124.247 114.028C124.247 114.406 124.267 114.758 124.309 115.078C123.92 115.68 123.322 116.145 122.512 116.481C121.703 116.813 120.823 116.983 119.873 116.983" fill="white"/>
<path d="M125.667 116.863C125.734 116.074 125.767 114.937 125.767 113.447C125.767 111.957 125.734 110.819 125.667 110.03C125.891 110.06 126.337 110.089 127.01 110.109C127.679 110.13 128.402 110.143 129.174 110.151C130.062 110.155 130.867 110.151 131.586 110.138C132.304 110.122 132.841 110.097 133.201 110.06C133.176 110.334 133.163 110.607 133.163 110.886C133.163 111.164 133.176 111.438 133.201 111.712C132.94 111.637 132.589 111.571 132.143 111.512C131.697 111.454 131.198 111.4 130.636 111.359C130.087 111.321 129.55 111.297 129.029 111.276C128.505 111.259 128.05 111.251 127.654 111.259C127.642 111.537 127.633 111.82 127.625 112.098C127.617 112.376 127.617 112.658 127.625 112.936C128.418 112.953 129.289 112.949 130.244 112.915C131.198 112.882 131.97 112.837 132.565 112.783C132.54 113.003 132.527 113.231 132.527 113.468C132.527 113.704 132.54 113.932 132.565 114.148C131.962 114.098 131.181 114.061 130.227 114.028C129.273 113.999 128.406 113.995 127.625 114.02C127.625 114.651 127.642 115.194 127.671 115.651C128.1 115.655 128.575 115.651 129.104 115.634C129.628 115.618 130.144 115.585 130.652 115.543C131.185 115.506 131.677 115.456 132.127 115.398C132.577 115.335 132.936 115.269 133.201 115.198C133.176 115.472 133.163 115.751 133.163 116.037C133.163 116.323 133.176 116.602 133.201 116.875H125.667V116.863Z" fill="white"/>
<path d="M134.605 116.863C134.654 115.722 134.679 114.58 134.679 113.443C134.679 112.305 134.654 111.168 134.605 110.03C134.972 110.084 135.336 110.114 135.687 110.118C136.042 110.118 136.364 110.093 136.662 110.03C136.612 110.632 136.583 111.512 136.571 112.671C136.558 113.874 136.571 114.871 136.6 115.659C137.343 115.655 138.314 115.609 139.507 115.526C140.705 115.443 141.535 115.344 142.002 115.223C141.977 115.555 141.964 115.846 141.964 116.087C141.964 116.328 141.977 116.589 142.002 116.859H134.605V116.863Z" fill="white"/>
<path d="M143.315 116.863C143.381 116.074 143.414 114.937 143.414 113.447C143.414 111.957 143.381 110.819 143.315 110.03C143.538 110.06 143.984 110.089 144.657 110.109C145.326 110.13 146.049 110.143 146.821 110.151C147.709 110.155 148.515 110.151 149.233 110.138C149.952 110.122 150.489 110.097 150.848 110.06C150.823 110.334 150.811 110.607 150.811 110.886C150.811 111.164 150.823 111.438 150.848 111.712C150.588 111.637 150.237 111.571 149.791 111.512C149.345 111.454 148.845 111.4 148.283 111.359C147.734 111.321 147.197 111.297 146.677 111.276C146.152 111.259 145.698 111.251 145.306 111.259C145.293 111.537 145.285 111.82 145.277 112.098C145.268 112.376 145.268 112.658 145.277 112.936C146.07 112.953 146.941 112.949 147.895 112.915C148.849 112.882 149.621 112.837 150.216 112.783C150.191 113.003 150.179 113.231 150.179 113.468C150.179 113.704 150.191 113.932 150.216 114.148C149.613 114.098 148.833 114.061 147.879 114.028C146.925 113.999 146.057 113.995 145.277 114.02C145.277 114.651 145.293 115.194 145.322 115.651C145.752 115.655 146.227 115.651 146.755 115.634C147.28 115.618 147.796 115.585 148.304 115.543C148.837 115.506 149.328 115.456 149.778 115.398C150.229 115.335 150.588 115.269 150.852 115.198C150.827 115.472 150.815 115.751 150.815 116.037C150.815 116.323 150.827 116.602 150.852 116.875H143.319L143.315 116.863Z" fill="white"/>
<path d="M156.444 116.971C155.672 116.971 154.908 116.9 154.156 116.751C153.405 116.606 152.715 116.419 152.095 116.186C152.145 115.883 152.17 115.58 152.17 115.281C152.17 114.983 152.145 114.68 152.095 114.385C152.508 114.808 153.136 115.132 153.987 115.352C154.838 115.572 155.717 115.68 156.63 115.68C157.208 115.68 157.63 115.618 157.89 115.489C158.15 115.36 158.278 115.165 158.278 114.908C158.278 114.684 158.195 114.518 158.034 114.406C157.869 114.298 157.617 114.215 157.27 114.157C156.923 114.098 156.357 114.036 155.573 113.97C154.767 113.895 154.115 113.791 153.607 113.654C153.099 113.517 152.711 113.318 152.438 113.052C152.166 112.787 152.029 112.434 152.029 111.99C152.029 111.292 152.339 110.769 152.958 110.425C153.578 110.08 154.52 109.906 155.783 109.906C156.473 109.906 157.084 109.939 157.617 110.006C158.154 110.072 158.703 110.172 159.273 110.304C159.604 110.379 159.814 110.425 159.897 110.45C159.868 110.645 159.847 110.84 159.839 111.043C159.831 111.243 159.831 111.446 159.843 111.645C159.847 111.732 159.856 111.815 159.868 111.898C159.876 111.986 159.889 112.069 159.901 112.152C159.277 111.865 158.621 111.637 157.927 111.458C157.233 111.284 156.498 111.193 155.726 111.193C155.123 111.193 154.685 111.251 154.416 111.371C154.148 111.492 154.012 111.678 154.012 111.932C154.012 112.143 154.086 112.314 154.239 112.438C154.387 112.563 154.631 112.658 154.97 112.724C155.304 112.791 155.779 112.849 156.386 112.899C156.568 112.911 156.704 112.924 156.795 112.936C157.588 113.011 158.232 113.115 158.732 113.252C159.232 113.389 159.612 113.592 159.876 113.858C160.141 114.123 160.269 114.476 160.269 114.912C160.269 115.605 159.955 116.12 159.327 116.46C158.699 116.801 157.745 116.971 156.465 116.971" fill="white"/>
<path d="M75.0338 0C75.0338 0 100.949 17.8161 95.5061 43.4651C95.5061 43.4651 96.5552 23.7022 75.0338 0Z" fill="#007960"/>
<path d="M79.1761 9.60126C79.1761 9.60126 101.305 35.1133 90.1371 57.9313C90.1371 57.9313 94.3993 34.2706 79.1761 9.60126Z" fill="#6DA796"/>
<path d="M80.5307 17.7663C80.5307 17.7663 98.0667 50.9078 78.4864 72.4474C78.4864 72.4474 90.451 48.1972 80.5307 17.7663Z" fill="#ACCFC7"/>
<path d="M79.9071 29.5925C79.9071 29.5925 89.1996 63.0121 65.8239 78.0014C65.8239 78.0014 82.3521 59.7453 79.9071 29.5925Z" fill="#C1C7CD"/>
<path d="M72.8118 41.5515C72.8118 41.5515 70.2017 73.6055 46.0205 80.2056C46.0205 80.2056 66.2658 68.1428 72.8118 41.5515Z" fill="#BBBFC5"/>
<path d="M76.4793 35.4578C76.4793 35.4578 80.5762 68.2548 55.5567 80.5459C55.5567 80.5459 74.0426 66.0424 76.4793 35.4578Z" fill="#E1E2E6"/>
<path d="M67.4221 49.621C67.4221 49.621 55.1767 81.152 29.8846 81.7747C29.8846 81.7747 52.7235 74.61 67.4221 49.621Z" fill="#CB6865"/>
<path d="M61.2685 54.6562C61.2685 54.6562 40.1683 85.6268 12.105 78.1633C12.105 78.1633 39.0326 77.5863 61.2685 54.6562Z" fill="#C96D74"/>
<path d="M49.7086 61.2314C49.7086 61.2314 23.5368 83.6883 0 68.9564C0 68.9564 24.3752 76.0006 49.7086 61.2314Z" fill="#BA454F"/>
<path d="M130.97 0C130.97 0 105.055 17.8161 110.498 43.4651C110.498 43.4651 109.449 23.7022 130.97 0Z" fill="#007960"/>
<path d="M126.828 9.60126C126.828 9.60126 104.699 35.1133 115.867 57.9313C115.867 57.9313 111.605 34.2706 126.828 9.60126Z" fill="#6DA796"/>
<path d="M125.469 17.7663C125.469 17.7663 107.933 50.9078 127.514 72.4474C127.514 72.4474 115.549 48.1972 125.469 17.7663Z" fill="#ACCFC7"/>
<path d="M126.093 29.5925C126.093 29.5925 116.8 63.0121 140.176 78.0014C140.176 78.0014 123.648 59.7453 126.093 29.5925Z" fill="#C1C7CD"/>
<path d="M133.192 41.5515C133.192 41.5515 135.802 73.6055 159.984 80.2056C159.984 80.2056 139.734 68.1428 133.192 41.5515Z" fill="#BBBFC5"/>
<path d="M129.525 35.4578C129.525 35.4578 125.428 68.2548 150.447 80.5459C150.447 80.5459 131.962 66.0424 129.525 35.4578Z" fill="#E1E2E6"/>
<path d="M138.578 49.621C138.578 49.621 150.819 81.152 176.115 81.7747C176.115 81.7747 153.277 74.61 138.578 49.621Z" fill="#CB6865"/>
<path d="M144.732 54.6562C144.732 54.6562 165.832 85.6268 193.895 78.1633C193.895 78.1633 166.967 77.5863 144.732 54.6562Z" fill="#C96D74"/>
<path d="M156.291 61.2314C156.291 61.2314 182.467 83.6841 206 68.9564C206 68.9564 181.625 76.0006 156.291 61.2314Z" fill="#BA454F"/>
</g>
<defs>
<clipPath id="clip0_17_1667">
<rect width="206" height="117" fill="white"/>
</clipPath>
</defs>
</svg>
