<svg width="12" height="12" viewBox="0 0 12 12" fill="none" xmlns="http://www.w3.org/2000/svg">
<g clip-path="url(#clip0_2790_22965)">
<path d="M10.7246 9.59981H9.91836V8.79356C9.91836 8.56856 9.73086 8.3623 9.48711 8.3623C9.24336 8.3623 9.05586 8.54981 9.05586 8.79356V9.59981H8.24961C8.02461 9.59981 7.81836 9.78731 7.81836 10.0311C7.81836 10.2748 8.00586 10.4623 8.24961 10.4623H9.05586V11.2498C9.05586 11.4748 9.24336 11.6811 9.48711 11.6811C9.73086 11.6811 9.91836 11.4936 9.91836 11.2498V10.4436H10.7246C10.9496 10.4436 11.1559 10.2561 11.1559 10.0123C11.1559 9.76856 10.9496 9.59981 10.7246 9.59981Z" fill="#F9FAFB"/>
<path d="M7.25606 10.8374H2.0248C1.8373 10.8374 1.6873 10.6874 1.6873 10.4999V1.4999C1.6873 1.3124 1.8373 1.1624 2.0248 1.1624H6.26231V3.5624C6.26231 3.7874 6.44981 3.99365 6.69356 3.99365H9.07481V7.4999C9.07481 7.7249 9.26231 7.93115 9.50606 7.93115C9.74981 7.93115 9.93731 7.74365 9.93731 7.4999V3.6749C9.93731 3.46865 9.84356 3.2624 9.69356 3.1124L7.08731 0.562402C6.93731 0.412402 6.73105 0.337402 6.52481 0.337402H2.0248C1.3873 0.337402 0.862305 0.862402 0.862305 1.4999V10.4999C0.862305 11.1374 1.3873 11.6812 2.04355 11.6812H7.27481C7.49981 11.6812 7.70606 11.4937 7.70606 11.2499C7.70606 11.0062 7.49981 10.8374 7.25606 10.8374ZM7.10606 1.7624L8.51231 3.1499H7.10606V1.7624Z" fill="#F9FAFB"/>
</g>
<defs>
<clipPath id="clip0_2790_22965">
<rect width="12" height="12" fill="white"/>
</clipPath>
</defs>
</svg>
