<svg width="12" height="12" viewBox="0 0 12 12" fill="none" xmlns="http://www.w3.org/2000/svg">
<path d="M1.34164 9.30927L2.05316 9.54644V9.54644L1.34164 9.30927ZM1.8411 7.8109L1.12959 7.57373L1.12959 7.57373L1.8411 7.8109ZM2.35647 6.97702L2.8868 7.50736L2.8868 7.50735L2.35647 6.97702ZM7.33369 1.9998L6.80336 1.46947L6.80336 1.46947L7.33369 1.9998ZM10.0004 4.66647L10.5307 5.1968V5.1968L10.0004 4.66647ZM5.02313 9.64369L4.4928 9.11336L4.4928 9.11336L5.02313 9.64369ZM4.18926 10.1591L4.42643 10.8706H4.42643L4.18926 10.1591ZM2.69088 10.6585L2.92805 11.37H2.92805L2.69088 10.6585ZM4.74977 9.89884L4.29809 9.30011L4.29809 9.30011L4.74977 9.89884ZM4.53972 10.0287L4.2062 9.3569L4.53972 10.0287ZM10.6428 2.74111L9.97075 3.07412V3.07412L10.6428 2.74111ZM10.6428 3.92515L9.97075 3.59214V3.59214L10.6428 3.92515ZM8.075 1.35739L8.40802 2.02941L8.40802 2.02941L8.075 1.35739ZM9.25905 1.35739L8.92603 2.02941L8.92603 2.02941L9.25905 1.35739ZM1.9715 7.46043L2.64326 7.79396L2.64326 7.79396L1.9715 7.46043ZM2.10131 7.25039L1.50258 6.79871L1.50258 6.79871L2.10131 7.25039ZM1.09318 10.503L0.386753 10.7549V10.7549L1.09318 10.503ZM1.4972 10.907L1.24529 11.6134L1.24529 11.6134L1.4972 10.907ZM7.19735 2.13616C6.90446 1.84326 6.42958 1.84326 6.13669 2.13616C5.8438 2.42905 5.8438 2.90392 6.13669 3.19682L7.19735 2.13616ZM8.80336 5.86348C9.09625 6.15638 9.57113 6.15638 9.86402 5.86348C10.1569 5.57059 10.1569 5.09572 9.86402 4.80282L8.80336 5.86348ZM2.05316 9.54644L2.55262 8.04807L1.12959 7.57373L0.630132 9.0721L2.05316 9.54644ZM2.8868 7.50735L7.86402 2.53013L6.80336 1.46947L1.82614 6.44669L2.8868 7.50735ZM9.47003 4.13614L4.4928 9.11336L5.55346 10.174L10.5307 5.1968L9.47003 4.13614ZM3.95209 9.44754L2.45371 9.947L2.92805 11.37L4.42643 10.8706L3.95209 9.44754ZM4.4928 9.11336C4.34584 9.26033 4.32099 9.28283 4.29809 9.30011L5.20145 10.4976C5.32684 10.403 5.43481 10.2927 5.55346 10.174L4.4928 9.11336ZM4.42643 10.8706C4.58562 10.8175 4.73257 10.7703 4.87325 10.7004L4.2062 9.3569C4.1805 9.36966 4.14926 9.38182 3.95209 9.44754L4.42643 10.8706ZM4.29809 9.30011C4.26928 9.32184 4.23852 9.34085 4.2062 9.3569L4.87325 10.7004C4.98869 10.6431 5.09856 10.5752 5.20145 10.4976L4.29809 9.30011ZM9.47003 2.53013C9.87635 2.93645 9.94202 3.01615 9.97075 3.07412L11.3148 2.4081C11.1492 2.07395 10.8514 1.79015 10.5307 1.46947L9.47003 2.53013ZM10.5307 5.1968C10.8514 4.87611 11.1492 4.59231 11.3148 4.25816L9.97075 3.59214C9.94202 3.65012 9.87635 3.72982 9.47003 4.13614L10.5307 5.1968ZM9.97075 3.07412C10.0516 3.23733 10.0516 3.42894 9.97075 3.59214L11.3148 4.25816C11.6036 3.6753 11.6036 2.99097 11.3148 2.4081L9.97075 3.07412ZM7.86402 2.53013C8.27034 2.12381 8.35004 2.05814 8.40802 2.02941L7.74199 0.685377C7.40785 0.850961 7.12404 1.14879 6.80336 1.46947L7.86402 2.53013ZM10.5307 1.46947C10.21 1.14879 9.92621 0.850961 9.59206 0.685377L8.92603 2.02941C8.98401 2.05814 9.06371 2.12381 9.47003 2.53013L10.5307 1.46947ZM8.40802 2.02941C8.57122 1.94853 8.76283 1.94853 8.92603 2.02941L9.59206 0.685377C9.00919 0.396541 8.32486 0.396541 7.74199 0.685377L8.40802 2.02941ZM2.55262 8.04807C2.61834 7.85089 2.6305 7.81966 2.64326 7.79396L1.29974 7.1269C1.22989 7.26759 1.18265 7.41454 1.12959 7.57373L2.55262 8.04807ZM1.82614 6.44669C1.70748 6.56535 1.59717 6.67331 1.50258 6.79871L2.70005 7.70207C2.71733 7.67917 2.73983 7.65432 2.8868 7.50736L1.82614 6.44669ZM2.64326 7.79396C2.6593 7.76164 2.67832 7.73088 2.70005 7.70207L1.50258 6.79871C1.42496 6.9016 1.35706 7.01147 1.29974 7.12691L2.64326 7.79396ZM0.630132 9.0721C0.526294 9.38362 0.431237 9.66642 0.376912 9.8976C0.325201 10.1177 0.272054 10.4332 0.386753 10.7549L1.79961 10.251C1.83707 10.3561 1.79959 10.4005 1.83714 10.2407C1.87207 10.0921 1.93986 9.88632 2.05316 9.54644L0.630132 9.0721ZM2.45371 9.947C2.11383 10.0603 1.90808 10.1281 1.75942 10.163C1.59964 10.2006 1.64405 10.1631 1.74911 10.2005L1.24529 11.6134C1.56694 11.7281 1.88249 11.675 2.10255 11.6232C2.33374 11.5689 2.61654 11.4739 2.92805 11.37L2.45371 9.947ZM0.386753 10.7549C0.529578 11.1554 0.844764 11.4706 1.24529 11.6134L1.74911 10.2005C1.77267 10.2089 1.79121 10.2275 1.79961 10.251L0.386753 10.7549ZM6.13669 3.19682L8.80336 5.86348L9.86402 4.80282L7.19735 2.13616L6.13669 3.19682Z" fill="#869FD4"/>
</svg>
