<svg width="12" height="12" viewBox="0 0 12 12" fill="none" xmlns="http://www.w3.org/2000/svg">
<path d="M9.95664 1.4626L6.33789 0.375098C6.11289 0.300098 5.86914 0.300098 5.64414 0.375098L2.04414 1.4626C1.53789 1.6126 1.18164 2.08135 1.18164 2.60635V6.9751C1.18164 8.3626 2.47539 9.58135 3.58164 10.3688C4.27539 10.8751 4.98789 11.2688 5.45664 11.5126C5.62539 11.6251 5.81289 11.6626 6.00039 11.6626C6.18789 11.6626 6.37539 11.6251 6.54414 11.5313C7.01289 11.2876 7.70664 10.8938 8.41914 10.3876C9.50664 9.6001 10.8191 8.3626 10.8191 6.99385V2.60635C10.8191 2.08135 10.4629 1.6126 9.95664 1.4626ZM9.97539 6.99385C9.97539 7.8001 9.24414 8.75635 7.93164 9.7126C7.27539 10.1813 6.61914 10.5563 6.16914 10.8001C6.07539 10.8563 5.94414 10.8563 5.85039 10.8001C5.40039 10.5751 4.74414 10.2001 4.08789 9.7126C2.77539 8.75635 2.04414 7.8001 2.04414 6.99385V2.60635C2.04414 2.45635 2.15664 2.30635 2.30664 2.26885L5.92539 1.18135C5.96289 1.1626 6.00039 1.1626 6.01914 1.1626C6.03789 1.1626 6.09414 1.1626 6.11289 1.18135L9.73164 2.26885C9.88164 2.30635 9.99414 2.45635 9.99414 2.60635V6.99385H9.97539Z" fill="#F9FAFB"/>
<path d="M7.35036 4.40645L5.19411 6.1502L4.72536 5.49395C4.59411 5.30645 4.33161 5.26895 4.14411 5.4002C3.95661 5.53145 3.91911 5.79395 4.05036 5.98145L4.78161 6.99395C4.85661 7.0877 4.95036 7.14395 5.06286 7.1627C5.08161 7.1627 5.10036 7.1627 5.11911 7.1627C5.21286 7.1627 5.30661 7.1252 5.38161 7.06895L7.87536 5.0627C8.06286 4.9127 8.08161 4.6502 7.93161 4.4627C7.80036 4.29395 7.53786 4.2752 7.35036 4.40645Z" fill="#F9FAFB"/>
</svg>
