<svg width="12" height="12" viewBox="0 0 12 12" fill="none" xmlns="http://www.w3.org/2000/svg">
<path d="M5.99961 4.44385C5.13711 4.44385 4.44336 5.1376 4.44336 6.0001C4.44336 6.8626 5.13711 7.55635 5.99961 7.55635C6.86211 7.55635 7.55586 6.8626 7.55586 6.0001C7.55586 5.1376 6.86211 4.44385 5.99961 4.44385ZM5.99961 6.7126C5.60586 6.7126 5.28711 6.39385 5.28711 6.0001C5.28711 5.60635 5.60586 5.2876 5.99961 5.2876C6.39336 5.2876 6.71211 5.60635 6.71211 6.0001C6.71211 6.39385 6.39336 6.7126 5.99961 6.7126Z" fill="#F9FAFB"/>
<path d="M11.475 5.34395C10.4062 3.7502 8.925 2.1377 6 2.1377C3.075 2.1377 1.59375 3.7502 0.525 5.34395C0.2625 5.7377 0.2625 6.2627 0.525 6.65645C1.59375 8.23145 3.075 9.86269 6 9.86269C8.925 9.86269 10.4062 8.23145 11.475 6.65645C11.7375 6.24395 11.7375 5.7377 11.475 5.34395ZM10.7812 6.1877C9.4125 8.19395 8.04375 9.01894 6 9.01894C3.95625 9.01894 2.5875 8.19395 1.21875 6.1877C1.14375 6.0752 1.14375 5.9252 1.21875 5.8127C2.5875 3.80645 3.95625 2.98145 6 2.98145C8.04375 2.98145 9.4125 3.80645 10.7812 5.8127C10.8375 5.9252 10.8375 6.0752 10.7812 6.1877Z" fill="#F9FAFB"/>
</svg>
