<svg width="25" height="25" viewBox="0 0 25 25" fill="none" xmlns="http://www.w3.org/2000/svg">
<rect x="0.5" y="0.650391" width="24" height="24" rx="12" fill="#E4EFFE"/>
<path d="M13.8337 17.3171C13.8337 16.5807 13.2367 15.9837 12.5003 15.9837C11.7639 15.9837 11.167 16.5807 11.167 17.3171C11.167 18.0534 11.7639 18.6504 12.5003 18.6504C13.2367 18.6504 13.8337 18.0534 13.8337 17.3171Z" fill="#428EFF"/>
<path d="M13.8337 12.6501C13.8337 11.9137 13.2367 11.3167 12.5003 11.3167C11.7639 11.3167 11.167 11.9137 11.167 12.6501C11.167 13.3864 11.7639 13.9834 12.5003 13.9834C13.2367 13.9834 13.8337 13.3864 13.8337 12.6501Z" fill="#428EFF"/>
<path d="M13.8337 7.98405C13.8337 7.24767 13.2367 6.65072 12.5003 6.65072C11.7639 6.65072 11.167 7.24767 11.167 7.98405C11.167 8.72043 11.7639 9.31738 12.5003 9.31738C13.2367 9.31738 13.8337 8.72043 13.8337 7.98405Z" fill="#428EFF"/>
</svg>
