<svg width="18" height="20" viewBox="0 0 18 20" fill="none" xmlns="http://www.w3.org/2000/svg">
<path d="M13.125 10.1875C12.9687 10.1875 12.8125 10.1875 12.6875 10.2188C11.7812 9.1875 10.6875 8.4375 9.46875 8.0625C10.6875 7.375 11.5312 6.0625 11.5312 4.5625C11.5312 2.34375 9.71875 0.5625 7.53125 0.5625C5.3125 0.5625 3.53125 2.375 3.53125 4.5625C3.53125 6.0625 4.375 7.375 5.59375 8.0625C4.375 8.4375 3.25 9.1875 2.34375 10.25C1.03125 11.8125 0.28125 14 0.21875 16.375C0.21875 16.6562 0.375 16.9062 0.59375 17.0312C1.4375 17.4375 4.375 18.7812 7.53125 18.7812C8.4375 18.7812 9.375 18.6875 10.3125 18.5C11.0937 19.0938 12.0625 19.4688 13.125 19.4688C15.6875 19.4688 17.75 17.375 17.75 14.8438C17.75 12.3125 15.6875 10.1875 13.125 10.1875ZM7.53125 1.96875C8.96875 1.96875 10.125 3.125 10.125 4.5625C10.125 6 8.96875 7.15625 7.53125 7.15625C6.09375 7.15625 4.9375 6 4.9375 4.5625C4.9375 3.125 6.09375 1.96875 7.53125 1.96875ZM1.65625 15.9688C1.78125 14.0938 2.40625 12.4062 3.4375 11.1562C4.53125 9.875 6 9.15625 7.5625 9.15625C8.90625 9.15625 10.1562 9.6875 11.1875 10.625C9.625 11.375 8.53125 12.9688 8.53125 14.8125C8.53125 15.7188 8.78125 16.5313 9.25 17.25C8.6875 17.3125 8.125 17.375 7.59375 17.375C5.09375 17.375 2.71875 16.4688 1.65625 15.9688ZM13.125 18.0625C11.3437 18.0625 9.90625 16.625 9.90625 14.8438C9.90625 13.0625 11.3437 11.625 13.125 11.625C14.9062 11.625 16.3437 13.0625 16.3437 14.8438C16.3437 16.625 14.9062 18.0625 13.125 18.0625Z" fill="white"/>
<path d="M14.1875 13.9375H13.8438V13.5937C13.8438 13.2187 13.5313 12.875 13.125 12.875C12.7188 12.875 12.4063 13.1875 12.4063 13.5937V13.9375H12.0625C11.6875 13.9375 11.3438 14.25 11.3438 14.6563C11.3438 15.0625 11.6562 15.375 12.0625 15.375H12.4375V15.7188C12.4375 16.0938 12.75 16.4375 13.1562 16.4375C13.5625 16.4375 13.875 16.125 13.875 15.7188V15.375H14.2188C14.5938 15.375 14.9375 15.0625 14.9375 14.6563C14.9375 14.25 14.5937 13.9375 14.1875 13.9375Z" fill="#FEF8F8"/>
</svg>
