<svg width="16" height="14" viewBox="0 0 16 14" fill="none" xmlns="http://www.w3.org/2000/svg">
<path d="M15.1247 10.325L9.77469 1.71665C9.34969 1.14165 8.69969 0.81665 7.99969 0.81665C7.27469 0.81665 6.62469 1.14165 6.22469 1.71665L0.874692 10.325C0.374692 11 0.299692 11.875 0.674692 12.625C1.04969 13.375 1.79969 13.85 2.64969 13.85H13.3497C14.1997 13.85 14.9497 13.375 15.3247 12.625C15.6997 11.9 15.6247 11 15.1247 10.325ZM14.3247 12.125C14.1247 12.5 13.7747 12.725 13.3497 12.725H2.64969C2.22469 12.725 1.87469 12.5 1.67469 12.125C1.49969 11.75 1.52469 11.325 1.77469 11L7.12469 2.39165C7.32469 2.11665 7.64969 1.94165 7.99969 1.94165C8.34969 1.94165 8.67469 2.09165 8.87469 2.39165L14.2247 11C14.4747 11.325 14.4997 11.75 14.3247 12.125Z" fill="#664D03"/>
<path d="M7.9998 5.46655C7.6998 5.46655 7.4248 5.71655 7.4248 6.04155V8.76655C7.4248 9.06655 7.6748 9.34155 7.9998 9.34155C8.3248 9.34155 8.5748 9.09155 8.5748 8.76655V6.01655C8.5748 5.71655 8.2998 5.46655 7.9998 5.46655Z" fill="#664D03"/>
<path d="M7.9998 10C7.6998 10 7.4248 10.25 7.4248 10.575V10.7C7.4248 11 7.6748 11.275 7.9998 11.275C8.3248 11.275 8.5748 11.025 8.5748 10.7V10.55C8.5748 10.25 8.2998 10 7.9998 10Z" fill="#664D03"/>
</svg>
