<svg width="14" height="12" viewBox="0 0 14 12" fill="none" xmlns="http://www.w3.org/2000/svg">
<path d="M0.939645 6.78115C0.711931 6.28574 0.711931 5.71422 0.939645 5.21881C1.99371 2.9256 4.31104 1.33331 7.00026 1.33331C9.68948 1.33331 12.0068 2.9256 13.0609 5.21881C13.2886 5.71422 13.2886 6.28575 13.0609 6.78115C12.0068 9.07436 9.68948 10.6666 7.00026 10.6666C4.31104 10.6666 1.99371 9.07436 0.939645 6.78115Z" stroke="#428EFF" stroke-width="1.5"/>
<path d="M9.00026 5.99998C9.00026 7.10455 8.10483 7.99998 7.00026 7.99998C5.89569 7.99998 5.00026 7.10455 5.00026 5.99998C5.00026 4.89541 5.89569 3.99998 7.00026 3.99998C8.10483 3.99998 9.00026 4.89541 9.00026 5.99998Z" stroke="#428EFF" stroke-width="1.5"/>
</svg>
