<svg width="14" height="13" viewBox="0 0 14 13" fill="none" xmlns="http://www.w3.org/2000/svg">
<path d="M0.939829 5.71622L1.62129 6.02946L1.62129 6.02946L0.939829 5.71622ZM13.0611 7.27857L12.3796 6.96534L13.0611 7.27857ZM0.939829 7.27857L0.25837 7.5918H0.25837L0.939829 7.27857ZM13.0611 5.71622L12.3796 6.02945L13.0611 5.71622ZM11.024 2.26602C10.6762 2.04104 10.2119 2.1406 9.98687 2.48839C9.76189 2.83618 9.86145 3.3005 10.2092 3.52547L11.024 2.26602ZM3.81943 9.48718C3.4704 9.26415 3.00664 9.36629 2.7836 9.71533C2.56057 10.0644 2.66271 10.5281 3.01175 10.7512L3.81943 9.48718ZM1.06749 8.94855C1.3163 9.27972 1.78646 9.34648 2.11762 9.09767C2.44878 8.84886 2.51554 8.3787 2.26673 8.04754L1.06749 8.94855ZM8.18458 2.6991C8.59051 2.7815 8.98639 2.51922 9.06879 2.11329C9.15119 1.70735 8.88891 1.31148 8.48298 1.22908L8.18458 2.6991ZM12.8641 1.69439C13.157 1.4015 13.157 0.926626 12.8641 0.633732C12.5712 0.340839 12.0963 0.340839 11.8034 0.633732L12.8641 1.69439ZM1.13677 11.3004C0.84388 11.5933 0.84388 12.0682 1.13677 12.3611C1.42967 12.654 1.90454 12.654 2.19743 12.3611L1.13677 11.3004ZM7.00044 1.08073C4.00754 1.08073 1.43025 2.85348 0.25837 5.40299L1.62129 6.02946C2.55755 3.99255 4.61491 2.58073 7.00044 2.58073V1.08073ZM7.00044 11.9141C9.99335 11.9141 12.5706 10.1413 13.7425 7.5918L12.3796 6.96534C11.4433 9.00224 9.38598 10.4141 7.00044 10.4141V11.9141ZM0.25837 5.40299C-0.0607327 6.09723 -0.0607328 6.89757 0.25837 7.5918L1.62129 6.96534C1.48496 6.66875 1.48496 6.32604 1.62129 6.02946L0.25837 5.40299ZM12.3796 6.02945C12.5159 6.32604 12.5159 6.66875 12.3796 6.96534L13.7425 7.5918C14.0616 6.89757 14.0616 6.09722 13.7425 5.40299L12.3796 6.02945ZM13.7425 5.40299C13.1509 4.11598 12.2024 3.02836 11.024 2.26602L10.2092 3.52547C11.1506 4.13441 11.9079 5.00334 12.3796 6.02945L13.7425 5.40299ZM3.01175 10.7512C4.16394 11.4874 5.53351 11.9141 7.00044 11.9141V10.4141C5.82816 10.4141 4.73762 10.0739 3.81943 9.48718L3.01175 10.7512ZM0.25837 7.5918C0.480187 8.07438 0.752156 8.52885 1.06749 8.94855L2.26673 8.04754C2.01494 7.7124 1.79804 7.34987 1.62129 6.96534L0.25837 7.5918ZM8.48298 1.22908C8.00333 1.13171 7.50746 1.08073 7.00044 1.08073V2.58073C7.40667 2.58073 7.8026 2.62156 8.18458 2.6991L8.48298 1.22908ZM5.0559 8.44194C6.12984 9.51588 7.87104 9.51588 8.94499 8.44194L7.88433 7.38128C7.39617 7.86944 6.60471 7.86944 6.11656 7.38128L5.0559 8.44194ZM8.94499 8.44194C10.0189 7.368 10.0189 5.62679 8.94499 4.55285L7.88433 5.61351C8.37248 6.10167 8.37248 6.89312 7.88433 7.38128L8.94499 8.44194ZM11.8034 0.633732L1.13677 11.3004L2.19743 12.3611L12.8641 1.69439L11.8034 0.633732Z" fill="#428EFF"/>
</svg>
