<svg width="40" height="40" viewBox="0 0 40 40" fill="none" xmlns="http://www.w3.org/2000/svg">
<path d="M26 28.8632H14C12.8954 28.8632 12 27.9677 12 26.8632V25.7761V11C12 9.89543 12.8954 9 14 9H20.6455C21.1759 9 21.6846 9.21071 22.0597 9.58578L27.4141 14.9401C27.7892 15.3152 27.9999 15.8239 27.9999 16.3544L28 26.8631C28 27.9677 27.1046 28.8632 26 28.8632Z" fill="#E56051"/>
<path d="M21.7461 12.5882C21.7461 14.061 22.94 15.2549 24.4128 15.2549H27.6877L21.7461 9.31328V12.5882Z" fill="#AF3029"/>
<path d="M20.0691 17.8867L23.1802 23.2753H16.958L20.0691 17.8867Z" stroke="white" stroke-linecap="round" stroke-linejoin="round"/>
<circle cx="16.171" cy="23.8965" r="1.52643" fill="white"/>
<circle cx="23.586" cy="23.8965" r="1.52643" fill="white"/>
<circle cx="20.0684" cy="16.7813" r="1.52643" fill="white"/>
</svg>
