<svg width="25" height="24" viewBox="0 0 25 24" fill="none" xmlns="http://www.w3.org/2000/svg">
<rect x="0.5" width="24" height="24" rx="12" fill="#E9F2FF"/>
<g clip-path="url(#clip0_1850_37134)">
<path d="M12.4998 9.92529C11.3498 9.92529 10.4248 10.8503 10.4248 12.0003C10.4248 13.1503 11.3498 14.0753 12.4998 14.0753C13.6498 14.0753 14.5748 13.1503 14.5748 12.0003C14.5748 10.8503 13.6498 9.92529 12.4998 9.92529ZM12.4998 12.9503C11.9748 12.9503 11.5498 12.5253 11.5498 12.0003C11.5498 11.4753 11.9748 11.0503 12.4998 11.0503C13.0248 11.0503 13.4498 11.4753 13.4498 12.0003C13.4498 12.5253 13.0248 12.9503 12.4998 12.9503Z" fill="#1D5DBB"/>
<path d="M19.8 11.1251C18.375 9.0001 16.4 6.8501 12.5 6.8501C8.6 6.8501 6.625 9.0001 5.2 11.1251C4.85 11.6501 4.85 12.3501 5.2 12.8751C6.625 14.9751 8.6 17.1501 12.5 17.1501C16.4 17.1501 18.375 14.9751 19.8 12.8751C20.15 12.3251 20.15 11.6501 19.8 11.1251ZM18.875 12.2501C17.05 14.9251 15.225 16.0251 12.5 16.0251C9.775 16.0251 7.95 14.9251 6.125 12.2501C6.025 12.1001 6.025 11.9001 6.125 11.7501C7.95 9.0751 9.775 7.9751 12.5 7.9751C15.225 7.9751 17.05 9.0751 18.875 11.7501C18.95 11.9001 18.95 12.1001 18.875 12.2501Z" fill="#1D5DBB"/>
</g>
<defs>
<clipPath id="clip0_1850_37134">
<rect width="16" height="16" fill="white" transform="translate(4.5 4)"/>
</clipPath>
</defs>
</svg>
