<svg width="40" height="40" viewBox="0 0 40 40" fill="none" xmlns="http://www.w3.org/2000/svg">
<rect width="40" height="40" rx="20" fill="#EDFAEB"/>
<path d="M17.3337 14.667C17.3337 15.4034 17.9306 16.0003 18.667 16.0003H24.0003C24.7367 16.0003 25.3337 15.4034 25.3337 14.667C25.3337 13.9306 24.7367 13.3337 24.0003 13.3337H18.667C17.9306 13.3337 17.3337 13.9306 17.3337 14.667ZM17.3337 14.667H16.0003C15.2639 14.667 14.667 14.07 14.667 13.3337M17.3337 20.0003C17.3337 20.7367 17.9306 21.3337 18.667 21.3337H24.0003C24.7367 21.3337 25.3337 20.7367 25.3337 20.0003C25.3337 19.2639 24.7367 18.667 24.0003 18.667H18.667C17.9306 18.667 17.3337 19.2639 17.3337 20.0003ZM17.3337 20.0003H16.0003C15.2639 20.0003 14.667 19.4034 14.667 18.667M17.3337 25.3337C17.3337 26.07 17.9306 26.667 18.667 26.667H24.0003C24.7367 26.667 25.3337 26.07 25.3337 25.3337C25.3337 24.5973 24.7367 24.0003 24.0003 24.0003H18.667C17.9306 24.0003 17.3337 24.5973 17.3337 25.3337ZM17.3337 25.3337H16.0003C15.2639 25.3337 14.667 24.7367 14.667 24.0003V18.667M14.667 13.3337V18.667M14.667 13.3337V12.667" stroke="#6CD75B" stroke-width="1.5" stroke-linecap="round"/>
</svg>
