<svg width="15" height="14" viewBox="0 0 15 14" fill="none" xmlns="http://www.w3.org/2000/svg">
<path d="M12.9998 7.75C13.4141 7.75 13.7498 7.41421 13.7498 7C13.7498 6.58579 13.4141 6.25 12.9998 6.25V7.75ZM6.99984 6.25C6.58562 6.25 6.24984 6.58579 6.24984 7C6.24984 7.41421 6.58562 7.75 6.99984 7.75V6.25ZM12.1968 4.46967C11.9039 4.17678 11.4291 4.17678 11.1362 4.46967C10.8433 4.76256 10.8433 5.23744 11.1362 5.53033L12.1968 4.46967ZM12.9123 6.24575L12.3819 6.77608L12.9123 6.24575ZM12.9123 7.75425L12.4321 7.17808L12.406 7.19986L12.3819 7.22392L12.9123 7.75425ZM11.1362 8.46967C10.8433 8.76256 10.8433 9.23744 11.1362 9.53033C11.4291 9.82322 11.9039 9.82322 12.1968 9.53033L11.1362 8.46967ZM12.9123 6.24576L12.3819 6.77609V6.77609L12.9123 6.24576ZM13.3577 6.79399L14.071 6.56223L14.071 6.56222L13.3577 6.79399ZM12.9123 7.75424L13.3924 8.33041L13.4185 8.30862L13.4426 8.28457L12.9123 7.75424ZM13.3577 7.20601L14.071 7.43777L14.071 7.43777L13.3577 7.20601ZM3.2286 3.22876L2.69827 2.69843H2.69827L3.2286 3.22876ZM3.2286 10.7712L2.69827 11.3016L3.2286 10.7712ZM9.29117 3.029C9.64979 3.23628 10.1085 3.1136 10.3158 2.75498C10.5231 2.39636 10.4004 1.9376 10.0418 1.73032L9.29117 3.029ZM10.0418 12.2697C10.4004 12.0624 10.5231 11.6036 10.3158 11.245C10.1085 10.8864 9.64979 10.7637 9.29117 10.971L10.0418 12.2697ZM12.9998 6.25H6.99984V7.75H12.9998V6.25ZM11.1362 5.53033L12.3819 6.77608L13.4426 5.71542L12.1968 4.46967L11.1362 5.53033ZM12.3819 7.22392L11.1362 8.46967L12.1968 9.53033L13.4426 8.28458L12.3819 7.22392ZM12.3819 6.77608L12.3819 6.77609L13.4426 5.71543L13.4426 5.71542L12.3819 6.77608ZM12.3819 6.77609C12.5227 6.91684 12.5959 6.99093 12.6437 7.04718C12.6858 7.09673 12.6625 7.08131 12.6444 7.02575L14.071 6.56222C14.0035 6.35445 13.8895 6.19692 13.7872 6.07641C13.6906 5.9626 13.5658 5.83868 13.4426 5.71543L12.3819 6.77609ZM13.3924 8.33041L13.3924 8.33041L12.4321 7.17807L12.4321 7.17808L13.3924 8.33041ZM13.4426 8.28457C13.5658 8.16131 13.6906 8.03739 13.7872 7.92359C13.8895 7.80308 14.0035 7.64555 14.071 7.43777L12.6444 6.97425C12.6625 6.91869 12.6858 6.90326 12.6437 6.95282C12.5959 7.00908 12.5227 7.08316 12.3819 7.22391L13.4426 8.28457ZM12.6444 7.02575C12.639 7.00901 12.639 6.99099 12.6444 6.97425L14.071 7.43777C14.1635 7.15324 14.1635 6.84675 14.071 6.56223L12.6444 7.02575ZM2.69827 2.69843C0.322581 5.07412 0.322582 8.92588 2.69827 11.3016L3.75893 10.2409C1.96903 8.451 1.96903 5.549 3.75893 3.75909L2.69827 2.69843ZM10.0418 1.73032C7.71558 0.385776 4.68937 0.707339 2.69827 2.69843L3.75893 3.75909C5.25777 2.26026 7.53814 2.01575 9.29117 3.029L10.0418 1.73032ZM2.69827 11.3016C4.68937 13.2927 7.71558 13.6142 10.0418 12.2697L9.29117 10.971C7.53814 11.9842 5.25777 11.7397 3.75893 10.2409L2.69827 11.3016Z" fill="#E1E2E6"/>
</svg>
