<svg width="16" height="20" viewBox="0 0 16 20" fill="none" xmlns="http://www.w3.org/2000/svg">
<path d="M8 8.125C8.34518 8.125 8.625 8.40482 8.625 8.75V10.625H10.5C10.8452 10.625 11.125 10.9048 11.125 11.25C11.125 11.5952 10.8452 11.875 10.5 11.875H8.625V13.75C8.625 14.0952 8.34518 14.375 8 14.375C7.65482 14.375 7.375 14.0952 7.375 13.75V11.875H5.5C5.15482 11.875 4.875 11.5952 4.875 11.25C4.875 10.9048 5.15482 10.625 5.5 10.625H7.375V8.75C7.375 8.40482 7.65482 8.125 8 8.125Z" fill="white"/>
<path d="M15.5 5.625V17.5C15.5 18.8807 14.3807 20 13 20H3C1.61929 20 0.5 18.8807 0.5 17.5V2.5C0.5 1.11929 1.61929 0 3 0H9.875L15.5 5.625ZM11.75 5.625C10.7145 5.625 9.875 4.78553 9.875 3.75V1.25H3C2.30964 1.25 1.75 1.80964 1.75 2.5V17.5C1.75 18.1904 2.30964 18.75 3 18.75H13C13.6904 18.75 14.25 18.1904 14.25 17.5V5.625H11.75Z" fill="white"/>
</svg>
