<svg width="24" height="24" viewBox="0 0 24 24" fill="none" xmlns="http://www.w3.org/2000/svg">
<g clip-path="url(#clip0_135_9980)">
<path d="M14.0352 18.5099C13.4965 19.0224 12.7889 19.3333 12.014 19.3333C11.2391 19.3333 10.5315 19.0224 9.99284 18.5099M16.5956 12.894V10.2745C16.5956 7.53853 14.552 5.33333 12.014 5.33333C9.47602 5.33333 7.40474 7.44451 7.40474 10.2745V12.8763C7.40474 13.2742 7.34721 13.6695 7.23437 14.047L6.67023 15.9341C6.65478 15.9858 6.68928 16.0392 6.73813 16.0392H17.257C17.3086 16.0392 17.3453 15.9849 17.3294 15.9319L16.7615 14.032C16.6516 13.6643 16.5956 13.2803 16.5956 12.894Z" stroke="white" stroke-width="1.5" stroke-linecap="round"/>
</g>
<defs>
<clipPath id="clip0_135_9980">
<rect width="16" height="16" fill="white" transform="translate(4 4)"/>
</clipPath>
</defs>
</svg>
