<svg width="44" height="44" viewBox="0 0 44 44" fill="none" xmlns="http://www.w3.org/2000/svg">
<rect x="2" y="2" width="40" height="40" rx="20" fill="#FFEBEB"/>
<rect x="2" y="2" width="40" height="40" rx="20" stroke="#FFF5F5" stroke-width="3"/>
<g clip-path="url(#clip0_1550_52707)">
<path d="M22.0002 14.4502C17.8252 14.4502 14.4502 17.8252 14.4502 22.0002C14.4502 26.1752 17.8252 29.5752 22.0002 29.5752C26.1752 29.5752 29.5752 26.1752 29.5752 22.0002C29.5752 17.8252 26.1752 14.4502 22.0002 14.4502ZM22.0002 28.4502C18.4502 28.4502 15.5752 25.5502 15.5752 22.0002C15.5752 18.4502 18.4502 15.5752 22.0002 15.5752C25.5502 15.5752 28.4502 18.4752 28.4502 22.0252C28.4502 25.5502 25.5502 28.4502 22.0002 28.4502Z" fill="#89070B"/>
<path d="M24.3006 19.6756C24.0756 19.4506 23.7256 19.4506 23.5006 19.6756L22.0006 21.2006L20.4756 19.6756C20.2506 19.4506 19.9006 19.4506 19.6756 19.6756C19.4506 19.9006 19.4506 20.2506 19.6756 20.4756L21.2006 22.0006L19.6756 23.5256C19.4506 23.7506 19.4506 24.1006 19.6756 24.3256C19.7756 24.4256 19.9256 24.5006 20.0756 24.5006C20.2256 24.5006 20.3756 24.4506 20.4756 24.3256L22.0006 22.8006L23.5256 24.3256C23.6256 24.4256 23.7756 24.5006 23.9256 24.5006C24.0756 24.5006 24.2256 24.4506 24.3256 24.3256C24.5506 24.1006 24.5506 23.7506 24.3256 23.5256L22.8006 22.0006L24.3256 20.4756C24.5256 20.2506 24.5256 19.9006 24.3006 19.6756Z" fill="#89070B"/>
</g>
<defs>
<clipPath id="clip0_1550_52707">
<rect width="16" height="16" fill="white" transform="translate(14 14)"/>
</clipPath>
</defs>
</svg>
