<svg width="14" height="17" viewBox="0 0 14 17" fill="none" xmlns="http://www.w3.org/2000/svg">
<path d="M4.33366 3.6665C4.33366 4.40288 4.93061 4.99984 5.66699 4.99984H11.0003C11.7367 4.99984 12.3337 4.40288 12.3337 3.6665C12.3337 2.93012 11.7367 2.33317 11.0003 2.33317H5.66699C4.93061 2.33317 4.33366 2.93012 4.33366 3.6665ZM4.33366 3.6665H3.00033C2.26395 3.6665 1.66699 3.06955 1.66699 2.33317M4.33366 8.99984C4.33366 9.73622 4.93061 10.3332 5.66699 10.3332H11.0003C11.7367 10.3332 12.3337 9.73622 12.3337 8.99984C12.3337 8.26346 11.7367 7.6665 11.0003 7.6665H5.66699C4.93061 7.6665 4.33366 8.26346 4.33366 8.99984ZM4.33366 8.99984H3.00033C2.26395 8.99984 1.66699 8.40288 1.66699 7.6665M4.33366 14.3332C4.33366 15.0696 4.93061 15.6665 5.66699 15.6665H11.0003C11.7367 15.6665 12.3337 15.0696 12.3337 14.3332C12.3337 13.5968 11.7367 12.9998 11.0003 12.9998H5.66699C4.93061 12.9998 4.33366 13.5968 4.33366 14.3332ZM4.33366 14.3332H3.00033C2.26395 14.3332 1.66699 13.7362 1.66699 12.9998V7.6665M1.66699 2.33317V7.6665M1.66699 2.33317V1.6665" stroke="#6CD75B" stroke-width="1.5" stroke-linecap="round"/>
</svg>
