<svg width="24" height="24" viewBox="0 0 24 24" fill="none" xmlns="http://www.w3.org/2000/svg">
<path d="M19.2619 18.8667C18.8833 18.1249 18.3837 17.429 17.763 16.8083C14.5802 13.6255 9.41991 13.6255 6.23714 16.8083C5.61645 17.429 5.1168 18.1249 4.7382 18.8667M1.5 12C1.5 6.20101 6.20101 1.5 12 1.5C17.799 1.5 22.5 6.20101 22.5 12C22.5 17.799 17.799 22.5 12 22.5C6.20101 22.5 1.5 17.799 1.5 12ZM15.8182 10.0909C15.8182 12.1996 14.1087 13.9091 12 13.9091C9.89128 13.9091 8.18182 12.1996 8.18182 10.0909C8.18182 7.98219 9.89128 6.27273 12 6.27273C14.1087 6.27273 15.8182 7.98219 15.8182 10.0909Z" stroke="white" stroke-width="1.5"/>
</svg>
